<?xml version='1.0' encoding='utf-8'?>
<!DOCTYPE svg PUBLIC '-//W3C//DTD SVG 1.1//EN' 'http://www.w3.org/Graphics/SVG/1.1/DTD/svg11.dtd'>
<svg version="1.1" xmlns="http://www.w3.org/2000/svg" viewBox="0 0 512 512" xmlns:xlink="http://www.w3.org/1999/xlink" enable-background="new 0 0 512 512">
  <g>
    <g>
      <path d="m256,11c-135.1,0-245,109.9-245,245s109.9,245 245,245c135.1,0 245-109.9 245-245s-109.9-245-245-245zm0,449.2c-112.6,0-204.2-91.6-204.2-204.2 0-112.6 91.6-204.2 204.2-204.2 112.6,0 204.2,91.6 204.2,204.2 0,112.6-91.6,204.2-204.2,204.2z"/>
      <path d="m268.8,224.8v-66.5c11,4.8 17.8,13.8 20.4,27.2l43-5.6c-2.9-17-9.8-30.6-20.4-40.7-10.7-10.2-25-16.3-43-18.5v-16.8h-24.7v16.8c-19.5,1.9-35.1,9.2-46.9,21.9-11.7,12.6-17.6,28.3-17.6,46.9 0,18.4 5.2,34 15.6,46.9 10.4,12.9 26.7,22.5 48.9,28.8v71.3c-6.1-2.9-11.7-7.7-16.7-14.3-5-6.6-8.4-14.4-10.2-23.5l-44.4,4.8c3.4,22.3 11.2,39.6 23.5,51.9s28.2,19.6 47.8,21.9v31h24.7v-31.8c22.1-3.2 39.4-11.8 51.8-25.9 12.4-14.1 18.6-31.4 18.6-51.9 0-18.4-4.9-33.4-14.8-45.2-9.9-11.8-28.4-21.3-55.6-28.7zm-24.7-8.2c-36.1-11.8-24.2-58.9 0-58.9v58.9zm24.7,122.2v-66.4c36.2,7 33.1,59.5 0,66.4z"/>
    </g>
  </g>
</svg>
