<svg width="25" height="21" viewBox="0 0 25 21" fill="none" xmlns="http://www.w3.org/2000/svg">
<rect x="0.884616" y="19.5526" width="23.077" height="0.769233" rx="0.384616" fill="#1A1A1A" stroke="#1A1A1A" stroke-width="0.769233"/>
<mask id="path-2-inside-1_2289_19504" fill="white">
<path fill-rule="evenodd" clip-rule="evenodd" d="M17.8083 18.5879C17.8083 18.5878 17.8083 18.5878 17.8083 18.5878C17.8083 15.6139 15.3975 13.2031 12.4237 13.2031C9.44984 13.2031 7.03906 15.6139 7.03906 18.5878C7.03906 18.5878 7.03906 18.5878 7.03906 18.5879H17.8083Z"/>
</mask>
<path fill-rule="evenodd" clip-rule="evenodd" d="M17.8083 18.5879C17.8083 18.5878 17.8083 18.5878 17.8083 18.5878C17.8083 15.6139 15.3975 13.2031 12.4237 13.2031C9.44984 13.2031 7.03906 15.6139 7.03906 18.5878C7.03906 18.5878 7.03906 18.5878 7.03906 18.5879H17.8083Z" fill="#1A1A1A"/>
<path d="M17.8083 18.5879V19.5879H18.8083V18.5879H17.8083ZM7.03906 18.5879H6.03906V19.5879H7.03906V18.5879ZM16.8083 18.5878C16.8083 18.5878 16.8083 18.5878 16.8083 18.5878C16.8083 18.5878 16.8083 18.5878 16.8083 18.5878V18.5878V18.5878C16.8083 18.5878 16.8083 18.5878 16.8083 18.5878C16.8083 18.5878 16.8083 18.5878 16.8083 18.5878C16.8083 18.5878 16.8083 18.5878 16.8083 18.5878V18.5878V18.5878C16.8083 18.5878 16.8083 18.5878 16.8083 18.5878C16.8083 18.5878 16.8083 18.5878 16.8083 18.5878C16.8083 18.5878 16.8083 18.5878 16.8083 18.5878C16.8083 18.5878 16.8083 18.5878 16.8083 18.5878V18.5878C16.8083 18.5878 16.8083 18.5878 16.8083 18.5878C16.8083 18.5878 16.8083 18.5878 16.8083 18.5878C16.8083 18.5878 16.8083 18.5878 16.8083 18.5878C16.8083 18.5878 16.8083 18.5878 16.8083 18.5878V18.5878V18.5878C16.8083 18.5878 16.8083 18.5878 16.8083 18.5878C16.8083 18.5878 16.8083 18.5878 16.8083 18.5878C16.8083 18.5878 16.8083 18.5878 16.8083 18.5878V18.5878V18.5878C16.8083 18.5878 16.8083 18.5878 16.8083 18.5878C16.8083 18.5878 16.8083 18.5878 16.8083 18.5878C16.8083 18.5878 16.8083 18.5878 16.8083 18.5878C16.8083 18.5878 16.8083 18.5878 16.8083 18.5878V18.5878C16.8083 18.5878 16.8083 18.5878 16.8083 18.5878C16.8083 18.5878 16.8083 18.5878 16.8083 18.5878C16.8083 18.5878 16.8083 18.5878 16.8083 18.5878C16.8083 18.5878 16.8083 18.5878 16.8083 18.5878V18.5878V18.5878C16.8083 18.5878 16.8083 18.5878 16.8083 18.5878C16.8083 18.5878 16.8083 18.5878 16.8083 18.5878C16.8083 18.5878 16.8083 18.5878 16.8083 18.5878V18.5878V18.5878C16.8083 18.5878 16.8083 18.5878 16.8083 18.5878C16.8083 18.5878 16.8083 18.5878 16.8083 18.5878C16.8083 18.5878 16.8083 18.5878 16.8083 18.5878C16.8083 18.5878 16.8083 18.5878 16.8083 18.5878V18.5878C16.8083 18.5878 16.8083 18.5878 16.8083 18.5878C16.8083 18.5878 16.8083 18.5878 16.8083 18.5878C16.8083 18.5878 16.8083 18.5878 16.8083 18.5878C16.8083 18.5878 16.8083 18.5878 16.8083 18.5878V18.5878V18.5878C16.8083 18.5878 16.8083 18.5878 16.8083 18.5878C16.8083 18.5878 16.8083 18.5878 16.8083 18.5878C16.8083 18.5878 16.8083 18.5878 16.8083 18.5878V18.5878V18.5878C16.8083 18.5878 16.8083 18.5878 16.8083 18.5878C16.8083 18.5878 16.8083 18.5878 16.8083 18.5878C16.8083 18.5878 16.8083 18.5878 16.8083 18.5878V18.5878V18.5878C16.8083 18.5878 16.8083 18.5878 16.8083 18.5878C16.8083 18.5878 16.8083 18.5878 16.8083 18.5878C16.8083 18.5878 16.8083 18.5878 16.8083 18.5878C16.8083 18.5878 16.8083 18.5878 16.8083 18.5878V18.5878C16.8083 18.5878 16.8083 18.5878 16.8083 18.5878C16.8083 18.5878 16.8083 18.5878 16.8083 18.5878C16.8083 18.5878 16.8083 18.5878 16.8083 18.5878C16.8083 18.5878 16.8083 18.5878 16.8083 18.5878V18.5878V18.5878C16.8083 18.5878 16.8083 18.5878 16.8083 18.5878C16.8083 18.5878 16.8083 18.5878 16.8083 18.5878C16.8083 18.5878 16.8083 18.5878 16.8083 18.5878V18.5878V18.5878C16.8083 18.5878 16.8083 18.5878 16.8083 18.5878C16.8083 18.5878 16.8083 18.5878 16.8083 18.5878C16.8083 18.5878 16.8083 18.5878 16.8083 18.5878V18.5878V18.5878C16.8083 18.5878 16.8083 18.5878 16.8083 18.5878C16.8083 18.5878 16.8083 18.5878 16.8083 18.5878C16.8083 18.5878 16.8083 18.5878 16.8083 18.5878V18.5878V18.5878C16.8083 18.5878 16.8083 18.5878 16.8083 18.5878C16.8083 18.5878 16.8083 18.5878 16.8083 18.5878C16.8083 18.5878 16.8083 18.5878 16.8083 18.5878C16.8083 18.5878 16.8083 18.5878 16.8083 18.5878V18.5878C16.8083 18.5878 16.8083 18.5878 16.8083 18.5878C16.8083 18.5878 16.8083 18.5878 16.8083 18.5878C16.8083 18.5878 16.8083 18.5878 16.8083 18.5878C16.8083 18.5878 16.8083 18.5878 16.8083 18.5878V18.5878C16.8083 18.5878 16.8083 18.5878 16.8083 18.5878C16.8083 18.5878 16.8083 18.5878 16.8083 18.5878C16.8083 18.5878 16.8083 18.5878 16.8083 18.5878C16.8083 18.5878 16.8083 18.5878 16.8083 18.5878V18.5878V18.5878C16.8083 18.5878 16.8083 18.5878 16.8083 18.5878C16.8083 18.5878 16.8083 18.5878 16.8083 18.5878C16.8083 18.5878 16.8083 18.5878 16.8083 18.5878V18.5878V18.5878C16.8083 18.5878 16.8083 18.5878 16.8083 18.5878C16.8083 18.5878 16.8083 18.5878 16.8083 18.5878C16.8083 18.5878 16.8083 18.5878 16.8083 18.5878V18.5878V18.5878C16.8083 18.5878 16.8083 18.5878 16.8083 18.5878C16.8083 18.5878 16.8083 18.5878 16.8083 18.5878C16.8083 18.5878 16.8083 18.5878 16.8083 18.5878V18.5878V18.5878C16.8083 18.5878 16.8083 18.5878 16.8083 18.5878C16.8083 18.5878 16.8083 18.5878 16.8083 18.5878C16.8083 18.5878 16.8083 18.5878 16.8083 18.5878C16.8083 18.5878 16.8083 18.5878 16.8083 18.5878V18.5878C16.8083 18.5878 16.8083 18.5878 16.8083 18.5878C16.8083 18.5878 16.8083 18.5878 16.8083 18.5878C16.8083 18.5878 16.8083 18.5878 16.8083 18.5878C16.8083 18.5878 16.8083 18.5878 16.8083 18.5878V18.5878C16.8083 18.5878 16.8083 18.5878 16.8083 18.5878C16.8083 18.5878 16.8083 18.5878 16.8083 18.5878C16.8083 18.5878 16.8083 18.5878 16.8083 18.5878C16.8083 18.5878 16.8083 18.5878 16.8083 18.5878V18.5878V18.5878C16.8083 18.5878 16.8083 18.5878 16.8083 18.5878C16.8083 18.5878 16.8083 18.5878 16.8083 18.5878C16.8083 18.5878 16.8083 18.5878 16.8083 18.5878V18.5878V18.5878C16.8083 18.5878 16.8083 18.5878 16.8083 18.5878C16.8083 18.5878 16.8083 18.5878 16.8083 18.5878C16.8083 18.5878 16.8083 18.5878 16.8083 18.5878V18.5878V18.5878C16.8083 18.5878 16.8083 18.5878 16.8083 18.5878C16.8083 18.5878 16.8083 18.5878 16.8083 18.5878C16.8083 18.5878 16.8083 18.5878 16.8083 18.5878V18.5878V18.5878C16.8083 18.5878 16.8083 18.5878 16.8083 18.5878C16.8083 18.5878 16.8083 18.5878 16.8083 18.5878C16.8083 18.5878 16.8083 18.5878 16.8083 18.5878C16.8083 18.5878 16.8083 18.5878 16.8083 18.5878V18.5878C16.8083 18.5878 16.8083 18.5878 16.8083 18.5878C16.8083 18.5878 16.8083 18.5878 16.8083 18.5878C16.8083 18.5878 16.8083 18.5878 16.8083 18.5878C16.8083 18.5878 16.8083 18.5878 16.8083 18.5878V18.5878C16.8083 18.5878 16.8083 18.5878 16.8083 18.5878C16.8083 18.5878 16.8083 18.5878 16.8083 18.5878C16.8083 18.5878 16.8083 18.5878 16.8083 18.5878C16.8083 18.5878 16.8083 18.5878 16.8083 18.5878V18.5878V18.5878C16.8083 18.5878 16.8083 18.5878 16.8083 18.5878C16.8083 18.5878 16.8083 18.5878 16.8083 18.5878C16.8083 18.5878 16.8083 18.5878 16.8083 18.5878V18.5878V18.5878C16.8083 18.5878 16.8083 18.5878 16.8083 18.5878C16.8083 18.5878 16.8083 18.5878 16.8083 18.5878C16.8083 18.5878 16.8083 18.5878 16.8083 18.5878V18.5878V18.5878C16.8083 18.5878 16.8083 18.5878 16.8083 18.5878C16.8083 18.5878 16.8083 18.5878 16.8083 18.5878C16.8083 18.5878 16.8083 18.5878 16.8083 18.5878V18.5878V18.5878C16.8083 18.5878 16.8083 18.5878 16.8083 18.5878C16.8083 18.5878 16.8083 18.5878 16.8083 18.5878C16.8083 18.5878 16.8083 18.5878 16.8083 18.5878C16.8083 18.5878 16.8083 18.5878 16.8083 18.5878V18.5878C16.8083 18.5878 16.8083 18.5878 16.8083 18.5878C16.8083 18.5878 16.8083 18.5878 16.8083 18.5878C16.8083 18.5878 16.8083 18.5878 16.8083 18.5878C16.8083 18.5878 16.8083 18.5878 16.8083 18.5878V18.5878C16.8083 18.5878 16.8083 18.5878 16.8083 18.5878C16.8083 18.5878 16.8083 18.5878 16.8083 18.5878C16.8083 18.5878 16.8083 18.5878 16.8083 18.5878C16.8083 18.5878 16.8083 18.5878 16.8083 18.5878V18.5878V18.5878C16.8083 18.5879 16.8083 18.5879 16.8083 18.5879C16.8083 18.5879 16.8083 18.5879 16.8083 18.5879C16.8083 18.5879 16.8083 18.5879 16.8083 18.5879V18.5879V18.5879C16.8083 18.5879 16.8083 18.5879 16.8083 18.5879C16.8083 18.5879 16.8083 18.5879 16.8083 18.5879C16.8083 18.5879 16.8083 18.5879 16.8083 18.5879V18.5879V18.5879C16.8083 18.5879 16.8083 18.5879 16.8083 18.5879C16.8083 18.5879 16.8083 18.5879 16.8083 18.5879C16.8083 18.5879 16.8083 18.5879 16.8083 18.5879V18.5879V18.5879C16.8083 18.5879 16.8083 18.5879 16.8083 18.5879C16.8083 18.5879 16.8083 18.5879 16.8083 18.5879C16.8083 18.5879 16.8083 18.5879 16.8083 18.5879C16.8083 18.5879 16.8083 18.5879 16.8083 18.5879V18.5879C16.8083 18.5879 16.8083 18.5879 16.8083 18.5879C16.8083 18.5879 16.8083 18.5879 16.8083 18.5879C16.8083 18.5879 16.8083 18.5879 16.8083 18.5879C16.8083 18.5879 16.8083 18.5879 16.8083 18.5879V18.5879V18.5879C16.8083 18.5879 16.8083 18.5879 16.8083 18.5879C16.8083 18.5879 16.8083 18.5879 16.8083 18.5879C16.8083 18.5879 16.8083 18.5879 16.8083 18.5879V18.5879V18.5879C16.8083 18.5879 16.8083 18.5879 16.8083 18.5879C16.8083 18.5879 16.8083 18.5879 16.8083 18.5879C16.8083 18.5879 16.8083 18.5879 16.8083 18.5879V18.5879V18.5879C16.8083 18.5879 16.8083 18.5879 16.8083 18.5879C16.8083 18.5879 16.8083 18.5879 16.8083 18.5879C16.8083 18.5879 16.8083 18.5879 16.8083 18.5879C16.8083 18.5879 16.8083 18.5879 16.8083 18.5879V18.5879C16.8083 18.5879 16.8083 18.5879 16.8083 18.5879C16.8083 18.5879 16.8083 18.5879 16.8083 18.5879C16.8083 18.5879 16.8083 18.5879 16.8083 18.5879C16.8083 18.5879 16.8083 18.5879 16.8083 18.5879V18.5879V18.5879C16.8083 18.5879 16.8083 18.5879 16.8083 18.5879C16.8083 18.5879 16.8083 18.5879 16.8083 18.5879C16.8083 18.5879 16.8083 18.5879 16.8083 18.5879V18.5879V18.5879C16.8083 18.5879 16.8083 18.5879 16.8083 18.5879C16.8083 18.5879 16.8083 18.5879 16.8083 18.5879C16.8083 18.5879 16.8083 18.5879 16.8083 18.5879C16.8083 18.5879 16.8083 18.5879 16.8083 18.5879V18.5879C16.8083 18.5879 16.8083 18.5879 16.8083 18.5879C16.8083 18.5879 16.8083 18.5879 16.8083 18.5879C16.8083 18.5879 16.8083 18.5879 16.8083 18.5879C16.8083 18.5879 16.8083 18.5879 16.8083 18.5879V18.5879V18.5879C16.8083 18.5879 16.8083 18.5879 16.8083 18.5879C16.8083 18.5879 16.8083 18.5879 16.8083 18.5879C16.8083 18.5879 16.8083 18.5879 16.8083 18.5879V18.5879V18.5879C16.8083 18.5879 16.8083 18.5879 16.8083 18.5879C16.8083 18.5879 16.8083 18.5879 16.8083 18.5879C16.8083 18.5879 16.8083 18.5879 16.8083 18.5879C16.8083 18.5879 16.8083 18.5879 16.8083 18.5879V18.5879C16.8083 18.5879 16.8083 18.5879 16.8083 18.5879C16.8083 18.5879 16.8083 18.5879 16.8083 18.5879C16.8083 18.5879 16.8083 18.5879 16.8083 18.5879C16.8083 18.5879 16.8083 18.5879 16.8083 18.5879V18.5879V18.5879C16.8083 18.5879 16.8083 18.5879 16.8083 18.5879C16.8083 18.5879 16.8083 18.5879 16.8083 18.5879C16.8083 18.5879 16.8083 18.5879 16.8083 18.5879V18.5879V18.5879C16.8083 18.5879 16.8083 18.5879 16.8083 18.5879C16.8083 18.5879 16.8083 18.5879 16.8083 18.5879H18.8083C18.8083 18.5879 18.8083 18.5879 18.8083 18.5879C18.8083 18.5879 18.8083 18.5879 18.8083 18.5879V18.5879V18.5879C18.8083 18.5879 18.8083 18.5879 18.8083 18.5879C18.8083 18.5879 18.8083 18.5879 18.8083 18.5879C18.8083 18.5879 18.8083 18.5879 18.8083 18.5879V18.5879V18.5879C18.8083 18.5879 18.8083 18.5879 18.8083 18.5879C18.8083 18.5879 18.8083 18.5879 18.8083 18.5879C18.8083 18.5879 18.8083 18.5879 18.8083 18.5879C18.8083 18.5879 18.8083 18.5879 18.8083 18.5879V18.5879C18.8083 18.5879 18.8083 18.5879 18.8083 18.5879C18.8083 18.5879 18.8083 18.5879 18.8083 18.5879C18.8083 18.5879 18.8083 18.5879 18.8083 18.5879C18.8083 18.5879 18.8083 18.5879 18.8083 18.5879V18.5879V18.5879C18.8083 18.5879 18.8083 18.5879 18.8083 18.5879C18.8083 18.5879 18.8083 18.5879 18.8083 18.5879C18.8083 18.5879 18.8083 18.5879 18.8083 18.5879V18.5879V18.5879C18.8083 18.5879 18.8083 18.5879 18.8083 18.5879C18.8083 18.5879 18.8083 18.5879 18.8083 18.5879C18.8083 18.5879 18.8083 18.5879 18.8083 18.5879C18.8083 18.5879 18.8083 18.5879 18.8083 18.5879V18.5879C18.8083 18.5879 18.8083 18.5879 18.8083 18.5879C18.8083 18.5879 18.8083 18.5879 18.8083 18.5879C18.8083 18.5879 18.8083 18.5879 18.8083 18.5879C18.8083 18.5879 18.8083 18.5879 18.8083 18.5879V18.5879V18.5879C18.8083 18.5879 18.8083 18.5879 18.8083 18.5879C18.8083 18.5879 18.8083 18.5879 18.8083 18.5879C18.8083 18.5879 18.8083 18.5879 18.8083 18.5879V18.5879V18.5879C18.8083 18.5879 18.8083 18.5879 18.8083 18.5879C18.8083 18.5879 18.8083 18.5879 18.8083 18.5879C18.8083 18.5879 18.8083 18.5879 18.8083 18.5879C18.8083 18.5879 18.8083 18.5879 18.8083 18.5879V18.5879C18.8083 18.5879 18.8083 18.5879 18.8083 18.5879C18.8083 18.5879 18.8083 18.5879 18.8083 18.5879C18.8083 18.5879 18.8083 18.5879 18.8083 18.5879C18.8083 18.5879 18.8083 18.5879 18.8083 18.5879V18.5879V18.5879C18.8083 18.5879 18.8083 18.5879 18.8083 18.5879C18.8083 18.5879 18.8083 18.5879 18.8083 18.5879C18.8083 18.5879 18.8083 18.5879 18.8083 18.5879V18.5879V18.5879C18.8083 18.5879 18.8083 18.5879 18.8083 18.5879C18.8083 18.5879 18.8083 18.5879 18.8083 18.5879C18.8083 18.5879 18.8083 18.5879 18.8083 18.5879V18.5879V18.5879C18.8083 18.5879 18.8083 18.5879 18.8083 18.5879C18.8083 18.5879 18.8083 18.5879 18.8083 18.5879C18.8083 18.5879 18.8083 18.5879 18.8083 18.5879C18.8083 18.5879 18.8083 18.5879 18.8083 18.5879V18.5879C18.8083 18.5879 18.8083 18.5879 18.8083 18.5879C18.8083 18.5879 18.8083 18.5879 18.8083 18.5879C18.8083 18.5879 18.8083 18.5879 18.8083 18.5879C18.8083 18.5879 18.8083 18.5879 18.8083 18.5879V18.5879V18.5879C18.8083 18.5879 18.8083 18.5879 18.8083 18.5879C18.8083 18.5879 18.8083 18.5879 18.8083 18.5879C18.8083 18.5879 18.8083 18.5879 18.8083 18.5879V18.5879V18.5879C18.8083 18.5879 18.8083 18.5879 18.8083 18.5879C18.8083 18.5879 18.8083 18.5879 18.8083 18.5879C18.8083 18.5879 18.8083 18.5879 18.8083 18.5879V18.5879V18.5879C18.8083 18.5879 18.8083 18.5879 18.8083 18.5879C18.8083 18.5879 18.8083 18.5879 18.8083 18.5879C18.8083 18.5879 18.8083 18.5879 18.8083 18.5878V18.5878V18.5878C18.8083 18.5878 18.8083 18.5878 18.8083 18.5878C18.8083 18.5878 18.8083 18.5878 18.8083 18.5878C18.8083 18.5878 18.8083 18.5878 18.8083 18.5878C18.8083 18.5878 18.8083 18.5878 18.8083 18.5878V18.5878C18.8083 18.5878 18.8083 18.5878 18.8083 18.5878C18.8083 18.5878 18.8083 18.5878 18.8083 18.5878C18.8083 18.5878 18.8083 18.5878 18.8083 18.5878C18.8083 18.5878 18.8083 18.5878 18.8083 18.5878V18.5878C18.8083 18.5878 18.8083 18.5878 18.8083 18.5878C18.8083 18.5878 18.8083 18.5878 18.8083 18.5878C18.8083 18.5878 18.8083 18.5878 18.8083 18.5878C18.8083 18.5878 18.8083 18.5878 18.8083 18.5878V18.5878V18.5878C18.8083 18.5878 18.8083 18.5878 18.8083 18.5878C18.8083 18.5878 18.8083 18.5878 18.8083 18.5878C18.8083 18.5878 18.8083 18.5878 18.8083 18.5878V18.5878V18.5878C18.8083 18.5878 18.8083 18.5878 18.8083 18.5878C18.8083 18.5878 18.8083 18.5878 18.8083 18.5878C18.8083 18.5878 18.8083 18.5878 18.8083 18.5878V18.5878V18.5878C18.8083 18.5878 18.8083 18.5878 18.8083 18.5878C18.8083 18.5878 18.8083 18.5878 18.8083 18.5878C18.8083 18.5878 18.8083 18.5878 18.8083 18.5878V18.5878V18.5878C18.8083 18.5878 18.8083 18.5878 18.8083 18.5878C18.8083 18.5878 18.8083 18.5878 18.8083 18.5878C18.8083 18.5878 18.8083 18.5878 18.8083 18.5878C18.8083 18.5878 18.8083 18.5878 18.8083 18.5878V18.5878C18.8083 18.5878 18.8083 18.5878 18.8083 18.5878C18.8083 18.5878 18.8083 18.5878 18.8083 18.5878C18.8083 18.5878 18.8083 18.5878 18.8083 18.5878C18.8083 18.5878 18.8083 18.5878 18.8083 18.5878V18.5878C18.8083 18.5878 18.8083 18.5878 18.8083 18.5878C18.8083 18.5878 18.8083 18.5878 18.8083 18.5878C18.8083 18.5878 18.8083 18.5878 18.8083 18.5878C18.8083 18.5878 18.8083 18.5878 18.8083 18.5878V18.5878V18.5878C18.8083 18.5878 18.8083 18.5878 18.8083 18.5878C18.8083 18.5878 18.8083 18.5878 18.8083 18.5878C18.8083 18.5878 18.8083 18.5878 18.8083 18.5878V18.5878V18.5878C18.8083 18.5878 18.8083 18.5878 18.8083 18.5878C18.8083 18.5878 18.8083 18.5878 18.8083 18.5878C18.8083 18.5878 18.8083 18.5878 18.8083 18.5878V18.5878V18.5878C18.8083 18.5878 18.8083 18.5878 18.8083 18.5878C18.8083 18.5878 18.8083 18.5878 18.8083 18.5878C18.8083 18.5878 18.8083 18.5878 18.8083 18.5878V18.5878V18.5878C18.8083 18.5878 18.8083 18.5878 18.8083 18.5878C18.8083 18.5878 18.8083 18.5878 18.8083 18.5878C18.8083 18.5878 18.8083 18.5878 18.8083 18.5878C18.8083 18.5878 18.8083 18.5878 18.8083 18.5878V18.5878C18.8083 18.5878 18.8083 18.5878 18.8083 18.5878C18.8083 18.5878 18.8083 18.5878 18.8083 18.5878C18.8083 18.5878 18.8083 18.5878 18.8083 18.5878C18.8083 18.5878 18.8083 18.5878 18.8083 18.5878V18.5878C18.8083 18.5878 18.8083 18.5878 18.8083 18.5878C18.8083 18.5878 18.8083 18.5878 18.8083 18.5878C18.8083 18.5878 18.8083 18.5878 18.8083 18.5878C18.8083 18.5878 18.8083 18.5878 18.8083 18.5878V18.5878V18.5878C18.8083 18.5878 18.8083 18.5878 18.8083 18.5878C18.8083 18.5878 18.8083 18.5878 18.8083 18.5878C18.8083 18.5878 18.8083 18.5878 18.8083 18.5878V18.5878V18.5878C18.8083 18.5878 18.8083 18.5878 18.8083 18.5878C18.8083 18.5878 18.8083 18.5878 18.8083 18.5878C18.8083 18.5878 18.8083 18.5878 18.8083 18.5878V18.5878V18.5878C18.8083 18.5878 18.8083 18.5878 18.8083 18.5878C18.8083 18.5878 18.8083 18.5878 18.8083 18.5878C18.8083 18.5878 18.8083 18.5878 18.8083 18.5878V18.5878V18.5878C18.8083 18.5878 18.8083 18.5878 18.8083 18.5878C18.8083 18.5878 18.8083 18.5878 18.8083 18.5878C18.8083 18.5878 18.8083 18.5878 18.8083 18.5878C18.8083 18.5878 18.8083 18.5878 18.8083 18.5878V18.5878C18.8083 18.5878 18.8083 18.5878 18.8083 18.5878C18.8083 18.5878 18.8083 18.5878 18.8083 18.5878C18.8083 18.5878 18.8083 18.5878 18.8083 18.5878C18.8083 18.5878 18.8083 18.5878 18.8083 18.5878V18.5878C18.8083 18.5878 18.8083 18.5878 18.8083 18.5878C18.8083 18.5878 18.8083 18.5878 18.8083 18.5878C18.8083 18.5878 18.8083 18.5878 18.8083 18.5878C18.8083 18.5878 18.8083 18.5878 18.8083 18.5878V18.5878V18.5878C18.8083 18.5878 18.8083 18.5878 18.8083 18.5878C18.8083 18.5878 18.8083 18.5878 18.8083 18.5878C18.8083 18.5878 18.8083 18.5878 18.8083 18.5878V18.5878V18.5878C18.8083 18.5878 18.8083 18.5878 18.8083 18.5878C18.8083 18.5878 18.8083 18.5878 18.8083 18.5878C18.8083 18.5878 18.8083 18.5878 18.8083 18.5878V18.5878V18.5878C18.8083 18.5878 18.8083 18.5878 18.8083 18.5878C18.8083 18.5878 18.8083 18.5878 18.8083 18.5878C18.8083 18.5878 18.8083 18.5878 18.8083 18.5878V18.5878V18.5878C18.8083 18.5878 18.8083 18.5878 18.8083 18.5878C18.8083 18.5878 18.8083 18.5878 18.8083 18.5878C18.8083 18.5878 18.8083 18.5878 18.8083 18.5878C18.8083 18.5878 18.8083 18.5878 18.8083 18.5878V18.5878C18.8083 18.5878 18.8083 18.5878 18.8083 18.5878C18.8083 18.5878 18.8083 18.5878 18.8083 18.5878C18.8083 18.5878 18.8083 18.5878 18.8083 18.5878C18.8083 18.5878 18.8083 18.5878 18.8083 18.5878V18.5878V18.5878C18.8083 18.5878 18.8083 18.5878 18.8083 18.5878C18.8083 18.5878 18.8083 18.5878 18.8083 18.5878C18.8083 18.5878 18.8083 18.5878 18.8083 18.5878V18.5878V18.5878C18.8083 18.5878 18.8083 18.5878 18.8083 18.5878C18.8083 18.5878 18.8083 18.5878 18.8083 18.5878C18.8083 18.5878 18.8083 18.5878 18.8083 18.5878V18.5878V18.5878C18.8083 18.5878 18.8083 18.5878 18.8083 18.5878C18.8083 18.5878 18.8083 18.5878 18.8083 18.5878C18.8083 18.5878 18.8083 18.5878 18.8083 18.5878C18.8083 18.5878 18.8083 18.5878 18.8083 18.5878V18.5878C18.8083 18.5878 18.8083 18.5878 18.8083 18.5878C18.8083 18.5878 18.8083 18.5878 18.8083 18.5878C18.8083 18.5878 18.8083 18.5878 18.8083 18.5878C18.8083 18.5878 18.8083 18.5878 18.8083 18.5878V18.5878V18.5878C18.8083 18.5878 18.8083 18.5878 18.8083 18.5878C18.8083 18.5878 18.8083 18.5878 18.8083 18.5878C18.8083 18.5878 18.8083 18.5878 18.8083 18.5878V18.5878V18.5878C18.8083 18.5878 18.8083 18.5878 18.8083 18.5878C18.8083 18.5878 18.8083 18.5878 18.8083 18.5878C18.8083 18.5878 18.8083 18.5878 18.8083 18.5878C18.8083 18.5878 18.8083 18.5878 18.8083 18.5878V18.5878C18.8083 18.5878 18.8083 18.5878 18.8083 18.5878C18.8083 18.5878 18.8083 18.5878 18.8083 18.5878C18.8083 18.5878 18.8083 18.5878 18.8083 18.5878C18.8083 18.5878 18.8083 18.5878 18.8083 18.5878V18.5878V18.5878C18.8083 18.5878 18.8083 18.5878 18.8083 18.5878C18.8083 18.5878 18.8083 18.5878 18.8083 18.5878C18.8083 18.5878 18.8083 18.5878 18.8083 18.5878V18.5878V18.5878C18.8083 18.5878 18.8083 18.5878 18.8083 18.5878C18.8083 18.5878 18.8083 18.5878 18.8083 18.5878C18.8083 18.5878 18.8083 18.5878 18.8083 18.5878C18.8083 18.5878 18.8083 18.5878 18.8083 18.5878V18.5878C18.8083 18.5878 18.8083 18.5878 18.8083 18.5878C18.8083 18.5878 18.8083 18.5878 18.8083 18.5878C18.8083 18.5878 18.8083 18.5878 18.8083 18.5878C18.8083 18.5878 18.8083 18.5878 18.8083 18.5878V18.5878V18.5878C18.8083 18.5878 18.8083 18.5878 18.8083 18.5878C18.8083 18.5878 18.8083 18.5878 18.8083 18.5878C18.8083 18.5878 18.8083 18.5878 18.8083 18.5878V18.5878V18.5878C18.8083 18.5878 18.8083 18.5878 18.8083 18.5878C18.8083 18.5878 18.8083 18.5878 18.8083 18.5878H16.8083ZM12.4237 14.2031C14.8453 14.2031 16.8083 16.1662 16.8083 18.5878H18.8083C18.8083 15.0616 15.9498 12.2031 12.4237 12.2031V14.2031ZM8.03906 18.5878C8.03906 16.1662 10.0021 14.2031 12.4237 14.2031V12.2031C8.89756 12.2031 6.03906 15.0616 6.03906 18.5878H8.03906ZM8.03906 18.5879C8.03906 18.5879 8.03906 18.5878 8.03906 18.5878C8.03906 18.5878 8.03906 18.5878 8.03906 18.5878H6.03906C6.03906 18.5878 6.03906 18.5878 6.03906 18.5878C6.03906 18.5879 6.03906 18.5879 6.03906 18.5879H8.03906ZM7.03906 19.5879H17.8083V17.5879H7.03906V19.5879Z" fill="#1A1A1A" mask="url(#path-2-inside-1_2289_19504)"/>
<mask id="path-4-inside-2_2289_19504" fill="white">
<path fill-rule="evenodd" clip-rule="evenodd" d="M17.4901 7.88591C17.3564 7.12781 16.4522 6.7987 15.8625 7.29352L12.4019 10.1972L12.3877 10.2094L12.3734 10.1972L8.9129 7.29352C8.3232 6.7987 7.41898 7.12781 7.28531 7.88591L6.50087 12.3347C6.4669 12.5273 6.48916 12.7109 6.55312 12.8734C6.44419 12.8442 6.32704 12.8331 6.2044 12.8438L1.70418 13.2375C0.937312 13.3046 0.530647 14.1767 0.972187 14.8073L3.5089 18.4301H6.32617V18.4297C6.32617 15.0364 9.077 12.2855 12.4703 12.2855C15.8637 12.2855 18.6145 15.0364 18.6145 18.4297V18.4301H21.5281L23.8501 15.1139C24.2916 14.4833 23.8849 13.6112 23.1181 13.5441L18.6179 13.1504C18.1887 13.1129 17.8269 13.3432 17.6484 13.6756C17.5822 13.6151 17.5148 13.5557 17.4465 13.4975C17.9684 13.4142 18.3769 12.9154 18.2745 12.3347L17.4901 7.88591ZM7.22292 13.4745C7.24996 13.5427 7.26966 13.614 7.28119 13.6873C7.34697 13.627 7.4138 13.5678 7.48166 13.5097C7.39278 13.5096 7.30594 13.4974 7.22292 13.4745Z"/>
</mask>
<path fill-rule="evenodd" clip-rule="evenodd" d="M17.4901 7.88591C17.3564 7.12781 16.4522 6.7987 15.8625 7.29352L12.4019 10.1972L12.3877 10.2094L12.3734 10.1972L8.9129 7.29352C8.3232 6.7987 7.41898 7.12781 7.28531 7.88591L6.50087 12.3347C6.4669 12.5273 6.48916 12.7109 6.55312 12.8734C6.44419 12.8442 6.32704 12.8331 6.2044 12.8438L1.70418 13.2375C0.937312 13.3046 0.530647 14.1767 0.972187 14.8073L3.5089 18.4301H6.32617V18.4297C6.32617 15.0364 9.077 12.2855 12.4703 12.2855C15.8637 12.2855 18.6145 15.0364 18.6145 18.4297V18.4301H21.5281L23.8501 15.1139C24.2916 14.4833 23.8849 13.6112 23.1181 13.5441L18.6179 13.1504C18.1887 13.1129 17.8269 13.3432 17.6484 13.6756C17.5822 13.6151 17.5148 13.5557 17.4465 13.4975C17.9684 13.4142 18.3769 12.9154 18.2745 12.3347L17.4901 7.88591ZM7.22292 13.4745C7.24996 13.5427 7.26966 13.614 7.28119 13.6873C7.34697 13.627 7.4138 13.5678 7.48166 13.5097C7.39278 13.5096 7.30594 13.4974 7.22292 13.4745Z" fill="#1A1A1A"/>
<path d="M15.8625 7.29352L15.2197 6.52747L15.2197 6.52747L15.8625 7.29352ZM17.4901 7.88591L18.4749 7.71227V7.71226L17.4901 7.88591ZM12.4019 10.1972L11.7591 9.43117L11.7524 9.4369L12.4019 10.1972ZM12.3877 10.2094L11.7381 10.9697L12.3876 11.5247L13.0372 10.9698L12.3877 10.2094ZM12.3734 10.1972L13.0231 9.43697L13.0162 9.4312L12.3734 10.1972ZM8.9129 7.29352L8.27012 8.05956V8.05956L8.9129 7.29352ZM7.28531 7.88591L8.27012 8.05956L8.27012 8.05956L7.28531 7.88591ZM6.50087 12.3347L7.48568 12.5083V12.5083L6.50087 12.3347ZM6.55312 12.8734L6.29461 13.8394L8.21018 14.352L7.48357 12.5069L6.55312 12.8734ZM6.2044 12.8438L6.11724 11.8476H6.11724L6.2044 12.8438ZM1.70418 13.2375L1.79134 14.2337H1.79134L1.70418 13.2375ZM0.972187 14.8073L0.153034 15.3809H0.153034L0.972187 14.8073ZM3.5089 18.4301L2.68975 19.0037L2.98833 19.4301H3.5089V18.4301ZM6.32617 18.4301V19.4301H7.32617V18.4301H6.32617ZM18.6145 18.4301H17.6145V19.4301H18.6145V18.4301ZM21.5281 18.4301V19.4301H22.0486L22.3472 19.0037L21.5281 18.4301ZM23.8501 15.1139L23.0309 14.5403L23.8501 15.1139ZM23.1181 13.5441L23.0309 14.5403L23.1181 13.5441ZM18.6179 13.1504L18.705 12.1542L18.6179 13.1504ZM17.6484 13.6756L16.9741 14.414L17.9222 15.2797L18.5295 14.1486L17.6484 13.6756ZM17.4465 13.4975L17.2888 12.51L15.1455 12.8522L16.7983 14.259L17.4465 13.4975ZM18.2745 12.3347L19.2593 12.161V12.161L18.2745 12.3347ZM7.28119 13.6873L6.29331 13.8426L6.58287 15.6848L7.95715 14.4242L7.28119 13.6873ZM7.22292 13.4745L7.48845 12.5104L5.55301 11.9774L6.29342 13.8433L7.22292 13.4745ZM7.48166 13.5097L8.13167 14.2696L10.1852 12.5131L7.48292 12.5097L7.48166 13.5097ZM16.5053 8.05956L16.5053 8.05956L18.4749 7.71226C18.2075 6.19605 16.3991 5.53784 15.2197 6.52747L16.5053 8.05956ZM13.0447 10.9633L16.5053 8.05956L15.2197 6.52747L11.7592 9.4312L13.0447 10.9633ZM13.0372 10.9698L13.0515 10.9576L11.7524 9.4369L11.7382 9.44908L13.0372 10.9698ZM11.7238 10.9575L11.7381 10.9697L13.0373 9.44919L13.0231 9.437L11.7238 10.9575ZM8.27012 8.05956L11.7306 10.9633L13.0162 9.4312L9.55569 6.52747L8.27012 8.05956ZM8.27012 8.05956L8.27012 8.05956L9.55569 6.52747C8.37629 5.53784 6.56785 6.19605 6.3005 7.71227L8.27012 8.05956ZM7.48568 12.5083L8.27012 8.05956L6.3005 7.71227L5.51606 12.161L7.48568 12.5083ZM7.48357 12.5069C7.48427 12.5087 7.4848 12.5109 7.48499 12.5127C7.48521 12.5148 7.48472 12.5137 7.48568 12.5083L5.51606 12.161C5.44948 12.5386 5.49241 12.909 5.62267 13.2398L7.48357 12.5069ZM6.29155 13.84C6.29345 13.8398 6.29478 13.8398 6.29558 13.8398C6.29639 13.8398 6.29679 13.8398 6.29683 13.8398C6.29687 13.8398 6.29666 13.8398 6.29623 13.8397C6.2958 13.8397 6.29525 13.8395 6.29461 13.8394L6.81164 11.9074C6.59021 11.8481 6.35608 11.8267 6.11724 11.8476L6.29155 13.84ZM1.79134 14.2337L6.29155 13.84L6.11724 11.8476L1.61703 12.2413L1.79134 14.2337ZM1.79134 14.2337L1.79134 14.2337L1.61703 12.2413C0.083287 12.3755 -0.730045 14.1197 0.153034 15.3809L1.79134 14.2337ZM4.32805 17.8565L1.79134 14.2337L0.153034 15.3809L2.68975 19.0037L4.32805 17.8565ZM6.32617 17.4301H3.5089V19.4301H6.32617V17.4301ZM5.32617 18.4297V18.4301H7.32617V18.4297H5.32617ZM12.4703 11.2855C8.52472 11.2855 5.32617 14.4841 5.32617 18.4297H7.32617C7.32617 15.5887 9.62929 13.2855 12.4703 13.2855V11.2855ZM19.6145 18.4297C19.6145 14.4841 16.4159 11.2855 12.4703 11.2855V13.2855C15.3114 13.2855 17.6145 15.5887 17.6145 18.4297H19.6145ZM19.6145 18.4301V18.4297H17.6145V18.4301H19.6145ZM21.5281 17.4301H18.6145V19.4301H21.5281V17.4301ZM23.0309 14.5403L20.7089 17.8565L22.3472 19.0037L24.6692 15.6875L23.0309 14.5403ZM23.0309 14.5403V14.5403L24.6692 15.6875C25.5523 14.4263 24.739 12.6821 23.2052 12.548L23.0309 14.5403ZM18.5307 14.1466L23.0309 14.5403L23.2052 12.548L18.705 12.1542L18.5307 14.1466ZM18.5295 14.1486C18.5304 14.147 18.5315 14.1454 18.5326 14.1443C18.5336 14.1432 18.5339 14.1433 18.5327 14.144C18.5313 14.1448 18.5291 14.1457 18.5268 14.1462C18.5257 14.1465 18.5252 14.1465 18.5255 14.1465C18.5258 14.1464 18.5275 14.1463 18.5307 14.1466L18.705 12.1542C17.8451 12.079 17.119 12.5476 16.7674 13.2026L18.5295 14.1486ZM16.7983 14.259C16.8578 14.3097 16.9164 14.3614 16.9741 14.414L18.3227 12.9371C18.2479 12.8688 18.1718 12.8017 18.0946 12.736L16.7983 14.259ZM17.2897 12.5083C17.2905 12.5126 17.2903 12.5142 17.2903 12.5135C17.2904 12.5129 17.2905 12.5115 17.2909 12.5097C17.2918 12.506 17.293 12.5047 17.2924 12.5056C17.2914 12.5068 17.2896 12.5087 17.2874 12.51C17.2855 12.5111 17.2858 12.5105 17.2888 12.51L17.6041 14.485C18.6382 14.3199 19.4655 13.3304 19.2593 12.161L17.2897 12.5083ZM16.5053 8.05956L17.2897 12.5083L19.2593 12.161L18.4749 7.71227L16.5053 8.05956ZM8.26906 13.532C8.24583 13.3843 8.20626 13.2414 8.15242 13.1057L6.29342 13.8433L6.29331 13.8426L8.26906 13.532ZM6.83165 12.7498C6.755 12.8154 6.67952 12.8822 6.60523 12.9504L7.95715 14.4242C8.01441 14.3717 8.0726 14.3202 8.13167 14.2696L6.83165 12.7498ZM6.9574 14.4386C7.12464 14.4847 7.30031 14.5095 7.4804 14.5097L7.48292 12.5097C7.48525 12.5097 7.48725 12.5101 7.48845 12.5104L6.9574 14.4386Z" fill="#1A1A1A" mask="url(#path-4-inside-2_2289_19504)"/>
<path d="M11.9238 0.705078C11.9238 0.428936 12.1477 0.205078 12.4238 0.205078C12.7 0.205078 12.9238 0.428936 12.9238 0.705078L11.9238 0.705078ZM12.7774 7.21249C12.5821 7.40776 12.2655 7.40776 12.0703 7.21249L8.88829 4.03051C8.69303 3.83525 8.69303 3.51867 8.88829 3.32341C9.08356 3.12815 9.40014 3.12815 9.5954 3.32341L12.4238 6.15183L15.2523 3.32341C15.4475 3.12815 15.7641 3.12815 15.9594 3.32341C16.1546 3.51867 16.1546 3.83525 15.9594 4.03051L12.7774 7.21249ZM12.9238 0.705078L12.9238 6.85894L11.9238 6.85894L11.9238 0.705078L12.9238 0.705078Z" fill="#1A1A1A"/>
</svg>
