<svg width="192" height="169" viewBox="0 0 192 169" fill="none" xmlns="http://www.w3.org/2000/svg">
<path opacity="0.5" d="M167.289 0.9375H24.0392C11.184 0.9375 0.496582 11.6253 0.496582 24.8125V144.188C0.496582 157.375 11.1844 168.062 24.0358 168.062H167.286C180.473 168.062 191.161 157.375 191.161 144.188V24.8125C191.164 11.6253 180.794 0.9375 167.289 0.9375ZM41.9455 24.8125C51.835 24.8125 59.8517 32.8293 59.8517 42.7188C59.8517 52.6082 52.167 60.625 41.9455 60.625C31.724 60.625 24.0392 52.6082 24.0392 42.7188C24.0392 32.8293 32.388 24.8125 41.9455 24.8125ZM166.916 141.054C165.872 142.994 163.857 144.188 161.656 144.188H31.0936C28.8474 144.188 26.7923 142.927 25.7739 140.923C24.7555 138.921 24.9476 136.518 26.2715 134.701L52.3848 98.8884C53.5099 97.3328 55.3006 96.4375 57.2031 96.4375C59.1056 96.4375 60.9022 97.3481 62.0266 98.8899L74.1357 115.494L108.941 63.6034C110.064 61.6322 111.929 60.625 113.906 60.625C115.883 60.625 117.767 61.6218 118.871 63.283L166.621 134.908C167.849 136.727 167.961 139.077 166.916 141.054Z" fill="#323741"/>
</svg>
