<svg width="25" height="22" viewBox="0 0 25 22" fill="none" xmlns="http://www.w3.org/2000/svg">
<rect x="0.961521" y="20.8456" width="23.077" height="0.769234" rx="0.384617" fill="#323741" stroke="#323741" stroke-width="0.769234"/>
<mask id="path-2-inside-1_2289_57523" fill="white">
<path fill-rule="evenodd" clip-rule="evenodd" d="M17.8852 19.8838C17.8852 19.8837 17.8852 19.8837 17.8852 19.8837C17.8852 16.9098 15.4745 14.499 12.5006 14.499C9.52675 14.499 7.11597 16.9098 7.11597 19.8837C7.11597 19.8837 7.11597 19.8837 7.11597 19.8838H17.8852Z"/>
</mask>
<path fill-rule="evenodd" clip-rule="evenodd" d="M17.8852 19.8838C17.8852 19.8837 17.8852 19.8837 17.8852 19.8837C17.8852 16.9098 15.4745 14.499 12.5006 14.499C9.52675 14.499 7.11597 16.9098 7.11597 19.8837C7.11597 19.8837 7.11597 19.8837 7.11597 19.8838H17.8852Z" fill="#323741"/>
<path d="M17.8852 19.8838V20.8838H18.8852V19.8838H17.8852ZM7.11597 19.8838H6.11597V20.8838H7.11597V19.8838ZM16.8852 19.8837C16.8852 19.8837 16.8852 19.8837 16.8852 19.8837C16.8852 19.8837 16.8852 19.8837 16.8852 19.8837C16.8852 19.8837 16.8852 19.8837 16.8852 19.8837V19.8837V19.8837C16.8852 19.8837 16.8852 19.8837 16.8852 19.8837C16.8852 19.8837 16.8852 19.8837 16.8852 19.8837C16.8852 19.8837 16.8852 19.8837 16.8852 19.8837C16.8852 19.8837 16.8852 19.8837 16.8852 19.8837C16.8852 19.8837 16.8852 19.8837 16.8852 19.8837C16.8852 19.8837 16.8852 19.8837 16.8852 19.8837V19.8837V19.8837C16.8852 19.8837 16.8852 19.8837 16.8852 19.8837C16.8852 19.8837 16.8852 19.8837 16.8852 19.8837C16.8852 19.8837 16.8852 19.8837 16.8852 19.8837C16.8852 19.8837 16.8852 19.8837 16.8852 19.8837C16.8852 19.8837 16.8852 19.8837 16.8852 19.8837C16.8852 19.8837 16.8852 19.8837 16.8852 19.8837V19.8837V19.8837V19.8837C16.8852 19.8837 16.8852 19.8837 16.8852 19.8837C16.8852 19.8837 16.8852 19.8837 16.8852 19.8837C16.8852 19.8837 16.8852 19.8837 16.8852 19.8837C16.8852 19.8837 16.8852 19.8837 16.8852 19.8837C16.8852 19.8837 16.8852 19.8837 16.8852 19.8837V19.8837V19.8837V19.8837C16.8852 19.8837 16.8852 19.8837 16.8852 19.8837C16.8852 19.8837 16.8852 19.8837 16.8852 19.8837C16.8852 19.8837 16.8852 19.8837 16.8852 19.8837C16.8852 19.8837 16.8852 19.8837 16.8852 19.8837C16.8852 19.8837 16.8852 19.8837 16.8852 19.8837V19.8837V19.8837V19.8837C16.8852 19.8837 16.8852 19.8837 16.8852 19.8837C16.8852 19.8837 16.8852 19.8837 16.8852 19.8837C16.8852 19.8837 16.8852 19.8837 16.8852 19.8837C16.8852 19.8837 16.8852 19.8837 16.8852 19.8837C16.8852 19.8837 16.8852 19.8837 16.8852 19.8837C16.8852 19.8837 16.8852 19.8837 16.8852 19.8837V19.8837V19.8837V19.8837C16.8852 19.8837 16.8852 19.8837 16.8852 19.8837C16.8852 19.8837 16.8852 19.8837 16.8852 19.8837C16.8852 19.8837 16.8852 19.8837 16.8852 19.8837C16.8852 19.8837 16.8852 19.8837 16.8852 19.8837C16.8852 19.8837 16.8852 19.8837 16.8852 19.8837V19.8837V19.8837V19.8837C16.8852 19.8837 16.8852 19.8837 16.8852 19.8837C16.8852 19.8837 16.8852 19.8837 16.8852 19.8837C16.8852 19.8837 16.8852 19.8837 16.8852 19.8837C16.8852 19.8837 16.8852 19.8837 16.8852 19.8837C16.8852 19.8837 16.8852 19.8837 16.8852 19.8837C16.8852 19.8837 16.8852 19.8837 16.8852 19.8837V19.8837V19.8837V19.8837C16.8852 19.8837 16.8852 19.8837 16.8852 19.8837C16.8852 19.8837 16.8852 19.8837 16.8852 19.8837C16.8852 19.8837 16.8852 19.8837 16.8852 19.8837C16.8852 19.8837 16.8852 19.8837 16.8852 19.8837C16.8852 19.8837 16.8852 19.8837 16.8852 19.8837V19.8837V19.8837V19.8837C16.8852 19.8837 16.8852 19.8837 16.8852 19.8837C16.8852 19.8837 16.8852 19.8837 16.8852 19.8837C16.8852 19.8837 16.8852 19.8837 16.8852 19.8837C16.8852 19.8837 16.8852 19.8837 16.8852 19.8837C16.8852 19.8837 16.8852 19.8837 16.8852 19.8837C16.8852 19.8837 16.8852 19.8837 16.8852 19.8837V19.8837V19.8837V19.8837C16.8852 19.8837 16.8852 19.8837 16.8852 19.8837C16.8852 19.8837 16.8852 19.8837 16.8852 19.8837C16.8852 19.8837 16.8852 19.8837 16.8852 19.8837C16.8852 19.8837 16.8852 19.8837 16.8852 19.8837C16.8852 19.8837 16.8852 19.8837 16.8852 19.8837C16.8852 19.8837 16.8852 19.8837 16.8852 19.8837V19.8837V19.8837C16.8852 19.8837 16.8852 19.8837 16.8852 19.8837C16.8852 19.8837 16.8852 19.8837 16.8852 19.8837C16.8852 19.8837 16.8852 19.8837 16.8852 19.8837C16.8852 19.8837 16.8852 19.8837 16.8852 19.8837C16.8852 19.8837 16.8852 19.8837 16.8852 19.8837C16.8852 19.8837 16.8852 19.8837 16.8852 19.8837V19.8837V19.8837V19.8837C16.8852 19.8837 16.8852 19.8837 16.8852 19.8837C16.8852 19.8837 16.8852 19.8837 16.8852 19.8837C16.8852 19.8837 16.8852 19.8837 16.8852 19.8837C16.8852 19.8837 16.8852 19.8837 16.8852 19.8837C16.8852 19.8837 16.8852 19.8837 16.8852 19.8837C16.8852 19.8837 16.8852 19.8837 16.8852 19.8837V19.8837V19.8837V19.8837C16.8852 19.8837 16.8852 19.8837 16.8852 19.8837C16.8852 19.8837 16.8852 19.8837 16.8852 19.8837C16.8852 19.8837 16.8852 19.8837 16.8852 19.8837C16.8852 19.8837 16.8852 19.8837 16.8852 19.8837C16.8852 19.8837 16.8852 19.8837 16.8852 19.8837C16.8852 19.8837 16.8852 19.8837 16.8852 19.8837V19.8837V19.8837V19.8837C16.8852 19.8837 16.8852 19.8837 16.8852 19.8837C16.8852 19.8837 16.8852 19.8837 16.8852 19.8837C16.8852 19.8837 16.8852 19.8837 16.8852 19.8837C16.8852 19.8837 16.8852 19.8837 16.8852 19.8837C16.8852 19.8837 16.8852 19.8837 16.8852 19.8837V19.8837V19.8837V19.8837C16.8852 19.8837 16.8852 19.8837 16.8852 19.8837C16.8852 19.8837 16.8852 19.8837 16.8852 19.8837C16.8852 19.8837 16.8852 19.8837 16.8852 19.8837C16.8852 19.8837 16.8852 19.8837 16.8852 19.8837C16.8852 19.8837 16.8852 19.8837 16.8852 19.8837C16.8852 19.8837 16.8852 19.8837 16.8852 19.8837V19.8837V19.8837V19.8837C16.8852 19.8837 16.8852 19.8837 16.8852 19.8837C16.8852 19.8837 16.8852 19.8837 16.8852 19.8837C16.8852 19.8837 16.8852 19.8837 16.8852 19.8837C16.8852 19.8837 16.8852 19.8837 16.8852 19.8837C16.8852 19.8837 16.8852 19.8837 16.8852 19.8837C16.8852 19.8837 16.8852 19.8837 16.8852 19.8837V19.8837V19.8837V19.8837C16.8852 19.8837 16.8852 19.8837 16.8852 19.8837C16.8852 19.8837 16.8852 19.8837 16.8852 19.8837C16.8852 19.8837 16.8852 19.8837 16.8852 19.8837C16.8852 19.8837 16.8852 19.8837 16.8852 19.8837C16.8852 19.8837 16.8852 19.8837 16.8852 19.8837C16.8852 19.8837 16.8852 19.8837 16.8852 19.8837V19.8837V19.8837V19.8837C16.8852 19.8837 16.8852 19.8837 16.8852 19.8837C16.8852 19.8837 16.8852 19.8837 16.8852 19.8837C16.8852 19.8837 16.8852 19.8837 16.8852 19.8837C16.8852 19.8837 16.8852 19.8837 16.8852 19.8837C16.8852 19.8837 16.8852 19.8837 16.8852 19.8837V19.8837V19.8837V19.8837C16.8852 19.8837 16.8852 19.8837 16.8852 19.8837C16.8852 19.8837 16.8852 19.8837 16.8852 19.8837C16.8852 19.8837 16.8852 19.8837 16.8852 19.8837C16.8852 19.8837 16.8852 19.8837 16.8852 19.8837C16.8852 19.8837 16.8852 19.8837 16.8852 19.8837C16.8852 19.8837 16.8852 19.8837 16.8852 19.8837V19.8837V19.8837V19.8837C16.8852 19.8837 16.8852 19.8837 16.8852 19.8837C16.8852 19.8837 16.8852 19.8837 16.8852 19.8837C16.8852 19.8837 16.8852 19.8837 16.8852 19.8837C16.8852 19.8837 16.8852 19.8837 16.8852 19.8837C16.8852 19.8837 16.8852 19.8837 16.8852 19.8837C16.8852 19.8837 16.8852 19.8837 16.8852 19.8837V19.8837V19.8837V19.8837C16.8852 19.8837 16.8852 19.8837 16.8852 19.8837C16.8852 19.8837 16.8852 19.8837 16.8852 19.8837C16.8852 19.8837 16.8852 19.8837 16.8852 19.8837C16.8852 19.8837 16.8852 19.8837 16.8852 19.8837C16.8852 19.8837 16.8852 19.8837 16.8852 19.8837C16.8852 19.8837 16.8852 19.8837 16.8852 19.8837V19.8837V19.8837C16.8852 19.8837 16.8852 19.8837 16.8852 19.8837C16.8852 19.8837 16.8852 19.8837 16.8852 19.8837C16.8852 19.8837 16.8852 19.8837 16.8852 19.8837C16.8852 19.8837 16.8852 19.8837 16.8852 19.8837C16.8852 19.8837 16.8852 19.8837 16.8852 19.8837C16.8852 19.8837 16.8852 19.8837 16.8852 19.8838V19.8838V19.8838V19.8838C16.8852 19.8838 16.8852 19.8838 16.8852 19.8838C16.8852 19.8838 16.8852 19.8838 16.8852 19.8838C16.8852 19.8838 16.8852 19.8838 16.8852 19.8838C16.8852 19.8838 16.8852 19.8838 16.8852 19.8838C16.8852 19.8838 16.8852 19.8838 16.8852 19.8838C16.8852 19.8838 16.8852 19.8838 16.8852 19.8838V19.8838V19.8838V19.8838C16.8852 19.8838 16.8852 19.8838 16.8852 19.8838C16.8852 19.8838 16.8852 19.8838 16.8852 19.8838C16.8852 19.8838 16.8852 19.8838 16.8852 19.8838C16.8852 19.8838 16.8852 19.8838 16.8852 19.8838C16.8852 19.8838 16.8852 19.8838 16.8852 19.8838V19.8838V19.8838V19.8838C16.8852 19.8838 16.8852 19.8838 16.8852 19.8838C16.8852 19.8838 16.8852 19.8838 16.8852 19.8838C16.8852 19.8838 16.8852 19.8838 16.8852 19.8838C16.8852 19.8838 16.8852 19.8838 16.8852 19.8838C16.8852 19.8838 16.8852 19.8838 16.8852 19.8838C16.8852 19.8838 16.8852 19.8838 16.8852 19.8838V19.8838V19.8838V19.8838C16.8852 19.8838 16.8852 19.8838 16.8852 19.8838C16.8852 19.8838 16.8852 19.8838 16.8852 19.8838C16.8852 19.8838 16.8852 19.8838 16.8852 19.8838C16.8852 19.8838 16.8852 19.8838 16.8852 19.8838C16.8852 19.8838 16.8852 19.8838 16.8852 19.8838V19.8838V19.8838V19.8838C16.8852 19.8838 16.8852 19.8838 16.8852 19.8838C16.8852 19.8838 16.8852 19.8838 16.8852 19.8838C16.8852 19.8838 16.8852 19.8838 16.8852 19.8838C16.8852 19.8838 16.8852 19.8838 16.8852 19.8838C16.8852 19.8838 16.8852 19.8838 16.8852 19.8838C16.8852 19.8838 16.8852 19.8838 16.8852 19.8838V19.8838V19.8838V19.8838C16.8852 19.8838 16.8852 19.8838 16.8852 19.8838C16.8852 19.8838 16.8852 19.8838 16.8852 19.8838C16.8852 19.8838 16.8852 19.8838 16.8852 19.8838C16.8852 19.8838 16.8852 19.8838 16.8852 19.8838C16.8852 19.8838 16.8852 19.8838 16.8852 19.8838V19.8838V19.8838V19.8838C16.8852 19.8838 16.8852 19.8838 16.8852 19.8838C16.8852 19.8838 16.8852 19.8838 16.8852 19.8838C16.8852 19.8838 16.8852 19.8838 16.8852 19.8838C16.8852 19.8838 16.8852 19.8838 16.8852 19.8838C16.8852 19.8838 16.8852 19.8838 16.8852 19.8838V19.8838V19.8838V19.8838C16.8852 19.8838 16.8852 19.8838 16.8852 19.8838C16.8852 19.8838 16.8852 19.8838 16.8852 19.8838C16.8852 19.8838 16.8852 19.8838 16.8852 19.8838C16.8852 19.8838 16.8852 19.8838 16.8852 19.8838C16.8852 19.8838 16.8852 19.8838 16.8852 19.8838C16.8852 19.8838 16.8852 19.8838 16.8852 19.8838V19.8838V19.8838C16.8852 19.8838 16.8852 19.8838 16.8852 19.8838C16.8852 19.8838 16.8852 19.8838 16.8852 19.8838C16.8852 19.8838 16.8852 19.8838 16.8852 19.8838C16.8852 19.8838 16.8852 19.8838 16.8852 19.8838C16.8852 19.8838 16.8852 19.8838 16.8852 19.8838C16.8852 19.8838 16.8852 19.8838 16.8852 19.8838V19.8838V19.8838C16.8852 19.8838 16.8852 19.8838 16.8852 19.8838C16.8852 19.8838 16.8852 19.8838 16.8852 19.8838C16.8852 19.8838 16.8852 19.8838 16.8852 19.8838H18.8852C18.8852 19.8838 18.8852 19.8838 18.8852 19.8838C18.8852 19.8838 18.8852 19.8838 18.8852 19.8838C18.8852 19.8838 18.8852 19.8838 18.8852 19.8838V19.8838V19.8838C18.8852 19.8838 18.8852 19.8838 18.8852 19.8838C18.8852 19.8838 18.8852 19.8838 18.8852 19.8838C18.8852 19.8838 18.8852 19.8838 18.8852 19.8838C18.8852 19.8838 18.8852 19.8838 18.8852 19.8838C18.8852 19.8838 18.8852 19.8838 18.8852 19.8838C18.8852 19.8838 18.8852 19.8838 18.8852 19.8838V19.8838V19.8838C18.8852 19.8838 18.8852 19.8838 18.8852 19.8838C18.8852 19.8838 18.8852 19.8838 18.8852 19.8838C18.8852 19.8838 18.8852 19.8838 18.8852 19.8838C18.8852 19.8838 18.8852 19.8838 18.8852 19.8838C18.8852 19.8838 18.8852 19.8838 18.8852 19.8838C18.8852 19.8838 18.8852 19.8838 18.8852 19.8838V19.8838V19.8838V19.8838C18.8852 19.8838 18.8852 19.8838 18.8852 19.8838C18.8852 19.8838 18.8852 19.8838 18.8852 19.8838C18.8852 19.8838 18.8852 19.8838 18.8852 19.8838C18.8852 19.8838 18.8852 19.8838 18.8852 19.8838C18.8852 19.8838 18.8852 19.8838 18.8852 19.8838V19.8838V19.8838V19.8838C18.8852 19.8838 18.8852 19.8838 18.8852 19.8838C18.8852 19.8838 18.8852 19.8838 18.8852 19.8838C18.8852 19.8838 18.8852 19.8838 18.8852 19.8838C18.8852 19.8838 18.8852 19.8838 18.8852 19.8838C18.8852 19.8838 18.8852 19.8838 18.8852 19.8838V19.8838V19.8838V19.8838C18.8852 19.8838 18.8852 19.8838 18.8852 19.8838C18.8852 19.8838 18.8852 19.8838 18.8852 19.8838C18.8852 19.8838 18.8852 19.8838 18.8852 19.8838C18.8852 19.8838 18.8852 19.8838 18.8852 19.8838C18.8852 19.8838 18.8852 19.8838 18.8852 19.8838C18.8852 19.8838 18.8852 19.8838 18.8852 19.8838V19.8838V19.8838V19.8838C18.8852 19.8838 18.8852 19.8838 18.8852 19.8838C18.8852 19.8838 18.8852 19.8838 18.8852 19.8838C18.8852 19.8838 18.8852 19.8838 18.8852 19.8838C18.8852 19.8838 18.8852 19.8838 18.8852 19.8838C18.8852 19.8838 18.8852 19.8838 18.8852 19.8838V19.8838V19.8838V19.8838C18.8852 19.8838 18.8852 19.8838 18.8852 19.8838C18.8852 19.8838 18.8852 19.8838 18.8852 19.8838C18.8852 19.8838 18.8852 19.8838 18.8852 19.8838C18.8852 19.8838 18.8852 19.8838 18.8852 19.8838C18.8852 19.8838 18.8852 19.8838 18.8852 19.8838C18.8852 19.8838 18.8852 19.8838 18.8852 19.8838V19.8838V19.8838V19.8838C18.8852 19.8838 18.8852 19.8838 18.8852 19.8838C18.8852 19.8838 18.8852 19.8838 18.8852 19.8838C18.8852 19.8838 18.8852 19.8838 18.8852 19.8838C18.8852 19.8838 18.8852 19.8838 18.8852 19.8838C18.8852 19.8838 18.8852 19.8838 18.8852 19.8838V19.8838V19.8838V19.8838C18.8852 19.8838 18.8852 19.8838 18.8852 19.8838C18.8852 19.8838 18.8852 19.8838 18.8852 19.8838C18.8852 19.8838 18.8852 19.8838 18.8852 19.8838C18.8852 19.8838 18.8852 19.8838 18.8852 19.8838C18.8852 19.8838 18.8852 19.8838 18.8852 19.8838C18.8852 19.8838 18.8852 19.8838 18.8852 19.8838V19.8838V19.8838V19.8838C18.8852 19.8837 18.8852 19.8837 18.8852 19.8837C18.8852 19.8837 18.8852 19.8837 18.8852 19.8837C18.8852 19.8837 18.8852 19.8837 18.8852 19.8837C18.8852 19.8837 18.8852 19.8837 18.8852 19.8837C18.8852 19.8837 18.8852 19.8837 18.8852 19.8837C18.8852 19.8837 18.8852 19.8837 18.8852 19.8837V19.8837V19.8837C18.8852 19.8837 18.8852 19.8837 18.8852 19.8837C18.8852 19.8837 18.8852 19.8837 18.8852 19.8837C18.8852 19.8837 18.8852 19.8837 18.8852 19.8837C18.8852 19.8837 18.8852 19.8837 18.8852 19.8837C18.8852 19.8837 18.8852 19.8837 18.8852 19.8837C18.8852 19.8837 18.8852 19.8837 18.8852 19.8837V19.8837V19.8837V19.8837C18.8852 19.8837 18.8852 19.8837 18.8852 19.8837C18.8852 19.8837 18.8852 19.8837 18.8852 19.8837C18.8852 19.8837 18.8852 19.8837 18.8852 19.8837C18.8852 19.8837 18.8852 19.8837 18.8852 19.8837C18.8852 19.8837 18.8852 19.8837 18.8852 19.8837C18.8852 19.8837 18.8852 19.8837 18.8852 19.8837V19.8837V19.8837V19.8837C18.8852 19.8837 18.8852 19.8837 18.8852 19.8837C18.8852 19.8837 18.8852 19.8837 18.8852 19.8837C18.8852 19.8837 18.8852 19.8837 18.8852 19.8837C18.8852 19.8837 18.8852 19.8837 18.8852 19.8837C18.8852 19.8837 18.8852 19.8837 18.8852 19.8837C18.8852 19.8837 18.8852 19.8837 18.8852 19.8837V19.8837V19.8837V19.8837C18.8852 19.8837 18.8852 19.8837 18.8852 19.8837C18.8852 19.8837 18.8852 19.8837 18.8852 19.8837C18.8852 19.8837 18.8852 19.8837 18.8852 19.8837C18.8852 19.8837 18.8852 19.8837 18.8852 19.8837C18.8852 19.8837 18.8852 19.8837 18.8852 19.8837V19.8837V19.8837V19.8837C18.8852 19.8837 18.8852 19.8837 18.8852 19.8837C18.8852 19.8837 18.8852 19.8837 18.8852 19.8837C18.8852 19.8837 18.8852 19.8837 18.8852 19.8837C18.8852 19.8837 18.8852 19.8837 18.8852 19.8837C18.8852 19.8837 18.8852 19.8837 18.8852 19.8837C18.8852 19.8837 18.8852 19.8837 18.8852 19.8837V19.8837V19.8837V19.8837C18.8852 19.8837 18.8852 19.8837 18.8852 19.8837C18.8852 19.8837 18.8852 19.8837 18.8852 19.8837C18.8852 19.8837 18.8852 19.8837 18.8852 19.8837C18.8852 19.8837 18.8852 19.8837 18.8852 19.8837C18.8852 19.8837 18.8852 19.8837 18.8852 19.8837C18.8852 19.8837 18.8852 19.8837 18.8852 19.8837V19.8837V19.8837V19.8837C18.8852 19.8837 18.8852 19.8837 18.8852 19.8837C18.8852 19.8837 18.8852 19.8837 18.8852 19.8837C18.8852 19.8837 18.8852 19.8837 18.8852 19.8837C18.8852 19.8837 18.8852 19.8837 18.8852 19.8837C18.8852 19.8837 18.8852 19.8837 18.8852 19.8837C18.8852 19.8837 18.8852 19.8837 18.8852 19.8837V19.8837V19.8837V19.8837C18.8852 19.8837 18.8852 19.8837 18.8852 19.8837C18.8852 19.8837 18.8852 19.8837 18.8852 19.8837C18.8852 19.8837 18.8852 19.8837 18.8852 19.8837C18.8852 19.8837 18.8852 19.8837 18.8852 19.8837C18.8852 19.8837 18.8852 19.8837 18.8852 19.8837V19.8837V19.8837V19.8837C18.8852 19.8837 18.8852 19.8837 18.8852 19.8837C18.8852 19.8837 18.8852 19.8837 18.8852 19.8837C18.8852 19.8837 18.8852 19.8837 18.8852 19.8837C18.8852 19.8837 18.8852 19.8837 18.8852 19.8837C18.8852 19.8837 18.8852 19.8837 18.8852 19.8837C18.8852 19.8837 18.8852 19.8837 18.8852 19.8837V19.8837V19.8837V19.8837C18.8852 19.8837 18.8852 19.8837 18.8852 19.8837C18.8852 19.8837 18.8852 19.8837 18.8852 19.8837C18.8852 19.8837 18.8852 19.8837 18.8852 19.8837C18.8852 19.8837 18.8852 19.8837 18.8852 19.8837C18.8852 19.8837 18.8852 19.8837 18.8852 19.8837C18.8852 19.8837 18.8852 19.8837 18.8852 19.8837V19.8837V19.8837V19.8837C18.8852 19.8837 18.8852 19.8837 18.8852 19.8837C18.8852 19.8837 18.8852 19.8837 18.8852 19.8837C18.8852 19.8837 18.8852 19.8837 18.8852 19.8837C18.8852 19.8837 18.8852 19.8837 18.8852 19.8837C18.8852 19.8837 18.8852 19.8837 18.8852 19.8837C18.8852 19.8837 18.8852 19.8837 18.8852 19.8837V19.8837V19.8837C18.8852 19.8837 18.8852 19.8837 18.8852 19.8837C18.8852 19.8837 18.8852 19.8837 18.8852 19.8837C18.8852 19.8837 18.8852 19.8837 18.8852 19.8837C18.8852 19.8837 18.8852 19.8837 18.8852 19.8837C18.8852 19.8837 18.8852 19.8837 18.8852 19.8837C18.8852 19.8837 18.8852 19.8837 18.8852 19.8837V19.8837V19.8837V19.8837C18.8852 19.8837 18.8852 19.8837 18.8852 19.8837C18.8852 19.8837 18.8852 19.8837 18.8852 19.8837C18.8852 19.8837 18.8852 19.8837 18.8852 19.8837C18.8852 19.8837 18.8852 19.8837 18.8852 19.8837C18.8852 19.8837 18.8852 19.8837 18.8852 19.8837C18.8852 19.8837 18.8852 19.8837 18.8852 19.8837V19.8837V19.8837V19.8837C18.8852 19.8837 18.8852 19.8837 18.8852 19.8837C18.8852 19.8837 18.8852 19.8837 18.8852 19.8837C18.8852 19.8837 18.8852 19.8837 18.8852 19.8837C18.8852 19.8837 18.8852 19.8837 18.8852 19.8837C18.8852 19.8837 18.8852 19.8837 18.8852 19.8837V19.8837V19.8837V19.8837C18.8852 19.8837 18.8852 19.8837 18.8852 19.8837C18.8852 19.8837 18.8852 19.8837 18.8852 19.8837C18.8852 19.8837 18.8852 19.8837 18.8852 19.8837C18.8852 19.8837 18.8852 19.8837 18.8852 19.8837C18.8852 19.8837 18.8852 19.8837 18.8852 19.8837C18.8852 19.8837 18.8852 19.8837 18.8852 19.8837V19.8837V19.8837V19.8837C18.8852 19.8837 18.8852 19.8837 18.8852 19.8837C18.8852 19.8837 18.8852 19.8837 18.8852 19.8837C18.8852 19.8837 18.8852 19.8837 18.8852 19.8837C18.8852 19.8837 18.8852 19.8837 18.8852 19.8837C18.8852 19.8837 18.8852 19.8837 18.8852 19.8837V19.8837V19.8837V19.8837C18.8852 19.8837 18.8852 19.8837 18.8852 19.8837C18.8852 19.8837 18.8852 19.8837 18.8852 19.8837C18.8852 19.8837 18.8852 19.8837 18.8852 19.8837C18.8852 19.8837 18.8852 19.8837 18.8852 19.8837C18.8852 19.8837 18.8852 19.8837 18.8852 19.8837C18.8852 19.8837 18.8852 19.8837 18.8852 19.8837V19.8837V19.8837V19.8837C18.8852 19.8837 18.8852 19.8837 18.8852 19.8837C18.8852 19.8837 18.8852 19.8837 18.8852 19.8837C18.8852 19.8837 18.8852 19.8837 18.8852 19.8837C18.8852 19.8837 18.8852 19.8837 18.8852 19.8837C18.8852 19.8837 18.8852 19.8837 18.8852 19.8837V19.8837V19.8837V19.8837C18.8852 19.8837 18.8852 19.8837 18.8852 19.8837C18.8852 19.8837 18.8852 19.8837 18.8852 19.8837C18.8852 19.8837 18.8852 19.8837 18.8852 19.8837C18.8852 19.8837 18.8852 19.8837 18.8852 19.8837C18.8852 19.8837 18.8852 19.8837 18.8852 19.8837V19.8837V19.8837V19.8837C18.8852 19.8837 18.8852 19.8837 18.8852 19.8837C18.8852 19.8837 18.8852 19.8837 18.8852 19.8837C18.8852 19.8837 18.8852 19.8837 18.8852 19.8837C18.8852 19.8837 18.8852 19.8837 18.8852 19.8837C18.8852 19.8837 18.8852 19.8837 18.8852 19.8837C18.8852 19.8837 18.8852 19.8837 18.8852 19.8837V19.8837V19.8837C18.8852 19.8837 18.8852 19.8837 18.8852 19.8837C18.8852 19.8837 18.8852 19.8837 18.8852 19.8837C18.8852 19.8837 18.8852 19.8837 18.8852 19.8837C18.8852 19.8837 18.8852 19.8837 18.8852 19.8837C18.8852 19.8837 18.8852 19.8837 18.8852 19.8837C18.8852 19.8837 18.8852 19.8837 18.8852 19.8837V19.8837V19.8837C18.8852 19.8837 18.8852 19.8837 18.8852 19.8837C18.8852 19.8837 18.8852 19.8837 18.8852 19.8837C18.8852 19.8837 18.8852 19.8837 18.8852 19.8837H16.8852ZM12.5006 15.499C14.9222 15.499 16.8852 17.4621 16.8852 19.8837H18.8852C18.8852 16.3575 16.0267 13.499 12.5006 13.499V15.499ZM8.11597 19.8837C8.11597 17.4621 10.079 15.499 12.5006 15.499V13.499C8.97447 13.499 6.11597 16.3575 6.11597 19.8837H8.11597ZM8.11597 19.8838C8.11597 19.8838 8.11597 19.8837 8.11597 19.8837C8.11597 19.8837 8.11597 19.8837 8.11597 19.8837H6.11597C6.11597 19.8837 6.11597 19.8837 6.11597 19.8837C6.11597 19.8838 6.11597 19.8838 6.11597 19.8838H8.11597ZM7.11597 20.8838H17.8852V18.8838H7.11597V20.8838Z" fill="#323741" mask="url(#path-2-inside-1_2289_57523)"/>
<mask id="path-4-inside-2_2289_57523" fill="white">
<path fill-rule="evenodd" clip-rule="evenodd" d="M17.567 9.18084C17.4333 8.42273 16.5291 8.09362 15.9394 8.58844L12.4788 11.4922L12.4646 11.5043L12.4503 11.4922L8.98979 8.58844C8.40009 8.09362 7.49587 8.42273 7.3622 9.18084L6.57776 13.6296C6.54379 13.8222 6.56605 14.0058 6.63001 14.1683C6.52107 14.1391 6.40393 14.128 6.28129 14.1387L1.78107 14.5324C1.0142 14.5995 0.607536 15.4716 1.04908 16.1022L3.58511 19.724H6.40305C6.40391 16.3314 9.15442 13.5814 12.5472 13.5814C15.94 13.5814 18.6905 16.3314 18.6914 19.724H21.6083L23.9289 16.4098C24.3704 15.7792 23.9638 14.9071 23.1969 14.84L18.6967 14.4463C18.2673 14.4088 17.9053 14.6394 17.7269 14.9721C17.66 14.9111 17.5921 14.8512 17.5231 14.7925C18.0451 14.7093 18.4538 14.2104 18.3514 13.6296L17.567 9.18084ZM7.29982 14.7694C7.32726 14.8386 7.34714 14.911 7.35859 14.9855C7.42557 14.924 7.49365 14.8637 7.56279 14.8046C7.47243 14.8049 7.38416 14.7927 7.29982 14.7694Z"/>
</mask>
<path fill-rule="evenodd" clip-rule="evenodd" d="M17.567 9.18084C17.4333 8.42273 16.5291 8.09362 15.9394 8.58844L12.4788 11.4922L12.4646 11.5043L12.4503 11.4922L8.98979 8.58844C8.40009 8.09362 7.49587 8.42273 7.3622 9.18084L6.57776 13.6296C6.54379 13.8222 6.56605 14.0058 6.63001 14.1683C6.52107 14.1391 6.40393 14.128 6.28129 14.1387L1.78107 14.5324C1.0142 14.5995 0.607536 15.4716 1.04908 16.1022L3.58511 19.724H6.40305C6.40391 16.3314 9.15442 13.5814 12.5472 13.5814C15.94 13.5814 18.6905 16.3314 18.6914 19.724H21.6083L23.9289 16.4098C24.3704 15.7792 23.9638 14.9071 23.1969 14.84L18.6967 14.4463C18.2673 14.4088 17.9053 14.6394 17.7269 14.9721C17.66 14.9111 17.5921 14.8512 17.5231 14.7925C18.0451 14.7093 18.4538 14.2104 18.3514 13.6296L17.567 9.18084ZM7.29982 14.7694C7.32726 14.8386 7.34714 14.911 7.35859 14.9855C7.42557 14.924 7.49365 14.8637 7.56279 14.8046C7.47243 14.8049 7.38416 14.7927 7.29982 14.7694Z" fill="#323741"/>
<path d="M15.9394 8.58844L15.2966 7.82239L15.2966 7.8224L15.9394 8.58844ZM17.567 9.18084L18.5518 9.00719V9.00719L17.567 9.18084ZM12.4788 11.4922L11.836 10.7261L11.8293 10.7318L12.4788 11.4922ZM12.4646 11.5043L11.815 12.2646L12.4645 12.8196L13.1141 12.2647L12.4646 11.5043ZM12.4503 11.4922L13.1 10.7319L13.0931 10.7261L12.4503 11.4922ZM8.98979 8.58844L9.63258 7.8224L9.63258 7.82239L8.98979 8.58844ZM7.3622 9.18084L6.37739 9.00719L6.37739 9.00719L7.3622 9.18084ZM6.57776 13.6296L5.59295 13.456V13.456L6.57776 13.6296ZM6.63001 14.1683L6.3715 15.1343L8.28702 15.6469L7.56046 13.8019L6.63001 14.1683ZM6.28129 14.1387L6.36845 15.1349L6.36845 15.1349L6.28129 14.1387ZM1.78107 14.5324L1.86823 15.5286H1.86823L1.78107 14.5324ZM1.04908 16.1022L1.86823 15.5286H1.86823L1.04908 16.1022ZM3.58511 19.724L2.76595 20.2976L3.06454 20.724H3.58511V19.724ZM6.40305 19.724V20.724H7.4028L7.40305 19.7243L6.40305 19.724ZM18.6914 19.724L17.6914 19.7243L17.6916 20.724H18.6914V19.724ZM21.6083 19.724V20.724H22.1288L22.4274 20.2976L21.6083 19.724ZM23.9289 16.4098L23.1098 15.8362L23.9289 16.4098ZM23.1969 14.84L23.1098 15.8362L23.1969 14.84ZM18.6967 14.4463L18.7839 13.4501L18.6967 14.4463ZM17.7269 14.9721L17.0527 15.7106L18.0014 16.5769L18.6083 15.4445L17.7269 14.9721ZM17.5231 14.7925L17.3657 13.8049L15.2204 14.1468L16.8752 15.5542L17.5231 14.7925ZM18.3514 13.6296L19.3362 13.456V13.456L18.3514 13.6296ZM7.35859 14.9855L6.3702 15.1375L6.6548 16.9887L8.03474 15.7223L7.35859 14.9855ZM7.29982 14.7694L7.56534 13.8053L5.62996 13.2723L6.37032 15.1382L7.29982 14.7694ZM7.56279 14.8046L8.2125 15.5648L10.2817 13.7963L7.55971 13.8047L7.56279 14.8046ZM16.5822 9.35448L16.5822 9.35448L18.5518 9.00719C18.2844 7.49098 16.476 6.83276 15.2966 7.82239L16.5822 9.35448ZM13.1216 12.2582L16.5822 9.35448L15.2966 7.8224L11.836 10.7261L13.1216 12.2582ZM13.1141 12.2647L13.1283 12.2525L11.8293 10.7318L11.8151 10.744L13.1141 12.2647ZM11.8007 12.2524L11.815 12.2646L13.1142 10.7441L13.0999 10.7319L11.8007 12.2524ZM8.34701 9.35448L11.8075 12.2582L13.0931 10.7261L9.63258 7.8224L8.34701 9.35448ZM8.34701 9.35448L8.34701 9.35448L9.63258 7.82239C8.45318 6.83276 6.64474 7.49098 6.37739 9.00719L8.34701 9.35448ZM7.56257 13.8033L8.34701 9.35448L6.37739 9.00719L5.59295 13.456L7.56257 13.8033ZM7.56046 13.8019C7.56116 13.8036 7.56169 13.8058 7.56188 13.8077C7.5621 13.8098 7.56161 13.8087 7.56257 13.8033L5.59295 13.456C5.52637 13.8336 5.5693 14.2039 5.69955 14.5347L7.56046 13.8019ZM6.36845 15.1349C6.37034 15.1347 6.37167 15.1347 6.37248 15.1347C6.37329 15.1347 6.37369 15.1347 6.37373 15.1347C6.37377 15.1347 6.37355 15.1347 6.37312 15.1346C6.37269 15.1346 6.37214 15.1345 6.3715 15.1343L6.88852 13.2023C6.66709 13.143 6.43296 13.1216 6.19413 13.1425L6.36845 15.1349ZM1.86823 15.5286L6.36845 15.1349L6.19413 13.1425L1.69392 13.5362L1.86823 15.5286ZM1.86823 15.5286H1.86823L1.69392 13.5362C0.160173 13.6704 -0.653154 15.4146 0.229924 16.6758L1.86823 15.5286ZM4.40426 19.1504L1.86823 15.5286L0.229924 16.6758L2.76595 20.2976L4.40426 19.1504ZM6.40305 18.724H3.58511V20.724H6.40305V18.724ZM7.40305 19.7243C7.40377 16.8838 9.70662 14.5814 12.5472 14.5814V12.5814C8.60222 12.5814 5.40405 15.779 5.40305 19.7238L7.40305 19.7243ZM12.5472 14.5814C15.3878 14.5814 17.6907 16.8838 17.6914 19.7243L19.6914 19.7238C19.6904 15.779 16.4922 12.5814 12.5472 12.5814V14.5814ZM21.6083 18.724H18.6914V20.724H21.6083V18.724ZM23.1098 15.8362L20.7891 19.1504L22.4274 20.2976L24.7481 16.9834L23.1098 15.8362ZM23.1098 15.8362V15.8362L24.7481 16.9834C25.6311 15.7222 24.8178 13.978 23.2841 13.8438L23.1098 15.8362ZM18.6095 15.4425L23.1098 15.8362L23.2841 13.8438L18.7839 13.4501L18.6095 15.4425ZM18.6083 15.4445C18.6092 15.4429 18.6103 15.4413 18.6114 15.4402C18.6125 15.4391 18.6127 15.4392 18.6115 15.4399C18.6101 15.4407 18.608 15.4416 18.6056 15.4421C18.6046 15.4424 18.6041 15.4424 18.6044 15.4423C18.6046 15.4423 18.6063 15.4422 18.6095 15.4425L18.7839 13.4501C17.9233 13.3748 17.1969 13.8441 16.8455 14.4997L18.6083 15.4445ZM16.8752 15.5542C16.9353 15.6053 16.9944 15.6575 17.0527 15.7106L18.4012 14.2336C18.3256 14.1647 18.2489 14.097 18.1709 14.0307L16.8752 15.5542ZM17.3666 13.8033C17.3673 13.8075 17.3672 13.8091 17.3672 13.8084C17.3672 13.8078 17.3674 13.8065 17.3678 13.8047C17.3687 13.801 17.3699 13.7997 17.3693 13.8005C17.3683 13.8018 17.3665 13.8036 17.3643 13.8049C17.3624 13.8061 17.3627 13.8054 17.3657 13.8049L17.6805 15.78C18.7148 15.6152 19.5424 14.6256 19.3362 13.456L17.3666 13.8033ZM16.5822 9.35448L17.3666 13.8033L19.3362 13.456L18.5518 9.00719L16.5822 9.35448ZM8.34698 14.8336C8.3239 14.6835 8.28397 14.5383 8.22933 14.4006L6.37032 15.1382L6.3702 15.1375L8.34698 14.8336ZM6.91307 14.0445C6.83498 14.1112 6.75809 14.1793 6.68245 14.2487L8.03474 15.7223C8.09305 15.6688 8.15231 15.6163 8.2125 15.5648L6.91307 14.0445ZM7.03431 15.7335C7.20421 15.7803 7.3828 15.8052 7.56586 15.8046L7.55971 13.8047C7.56207 13.8046 7.56411 13.805 7.56534 13.8053L7.03431 15.7335Z" fill="#323741" mask="url(#path-4-inside-2_2289_57523)"/>
<path d="M8.0769 7.1543C8.0769 7.43044 8.30076 7.6543 8.5769 7.6543C8.85305 7.6543 9.0769 7.43044 9.0769 7.1543L8.0769 7.1543ZM8.93046 0.646874C8.7352 0.451612 8.41861 0.451612 8.22335 0.646874L5.04137 3.82885C4.84611 4.02412 4.84611 4.3407 5.04137 4.53596C5.23663 4.73122 5.55321 4.73122 5.74848 4.53596L8.5769 1.70753L11.4053 4.53596C11.6006 4.73122 11.9172 4.73122 12.1124 4.53596C12.3077 4.3407 12.3077 4.02412 12.1124 3.82885L8.93046 0.646874ZM9.0769 7.1543L9.0769 1.00043L8.0769 1.00043L8.0769 7.1543L9.0769 7.1543Z" fill="#323741"/>
<path d="M16.1531 1C16.1531 0.723858 16.3769 0.5 16.6531 0.5C16.9292 0.5 17.1531 0.723858 17.1531 1L16.1531 1ZM17.0066 7.50742C16.8114 7.70268 16.4948 7.70268 16.2995 7.50742L13.1175 4.32544C12.9223 4.13018 12.9223 3.8136 13.1175 3.61834C13.3128 3.42307 13.6294 3.42307 13.8246 3.61834L16.6531 6.44676L19.4815 3.61834C19.6768 3.42307 19.9933 3.42307 20.1886 3.61834C20.3839 3.8136 20.3839 4.13018 20.1886 4.32544L17.0066 7.50742ZM17.1531 1L17.1531 7.15387L16.1531 7.15387L16.1531 1L17.1531 1Z" fill="#323741"/>
</svg>
