<svg width="25" height="21" viewBox="0 0 25 21" fill="current" xmlns="http://www.w3.org/2000/svg">
<rect x="0.884617" y="19.5506" width="23.077" height="0.769234" rx="0.384617" fill="current" stroke="current" stroke-width="0.769234"/>
<mask id="path-2-inside-1_2289_19528" fill="white">
<path fill-rule="evenodd" clip-rule="evenodd" d="M17.8083 18.5859C17.8083 18.5852 17.8083 18.5845 17.8083 18.5839C17.8083 15.61 15.3976 13.1992 12.4237 13.1992C9.44985 13.1992 7.03906 15.61 7.03906 18.5839C7.03906 18.5845 7.03906 18.5852 7.03906 18.5859H17.8083Z"/>
</mask>
<path fill-rule="evenodd" clip-rule="evenodd" d="M17.8083 18.5859C17.8083 18.5852 17.8083 18.5845 17.8083 18.5839C17.8083 15.61 15.3976 13.1992 12.4237 13.1992C9.44985 13.1992 7.03906 15.61 7.03906 18.5839C7.03906 18.5845 7.03906 18.5852 7.03906 18.5859H17.8083Z" fill="current"/>
<path d="M17.8083 18.5859V19.5859H18.8083V18.5859H17.8083ZM7.03906 18.5859L6.03906 18.5863L6.03944 19.5859H7.03906V18.5859ZM16.8083 18.5839C16.8083 18.5839 16.8083 18.5839 16.8083 18.5839C16.8083 18.5839 16.8083 18.5839 16.8083 18.5839C16.8083 18.5839 16.8083 18.5839 16.8083 18.5839C16.8083 18.5839 16.8083 18.5839 16.8083 18.5839C16.8083 18.5839 16.8083 18.5839 16.8083 18.5839C16.8083 18.5839 16.8083 18.5839 16.8083 18.5839C16.8083 18.5839 16.8083 18.5839 16.8083 18.5839C16.8083 18.5839 16.8083 18.5839 16.8083 18.5839C16.8083 18.5839 16.8083 18.5839 16.8083 18.5839C16.8083 18.5839 16.8083 18.5839 16.8083 18.5839C16.8083 18.5839 16.8083 18.5839 16.8083 18.5839C16.8083 18.5839 16.8083 18.5839 16.8083 18.5839C16.8083 18.5839 16.8083 18.5839 16.8083 18.5839C16.8083 18.5839 16.8083 18.5839 16.8083 18.5839C16.8083 18.5839 16.8083 18.5839 16.8083 18.5839C16.8083 18.5839 16.8083 18.5839 16.8083 18.5839C16.8083 18.5839 16.8083 18.5839 16.8083 18.5839C16.8083 18.5839 16.8083 18.5839 16.8083 18.5839C16.8083 18.5839 16.8083 18.5839 16.8083 18.5839C16.8083 18.5839 16.8083 18.5839 16.8083 18.5839C16.8083 18.5839 16.8083 18.5839 16.8083 18.5839C16.8083 18.5839 16.8083 18.5839 16.8083 18.5839C16.8083 18.5839 16.8083 18.5839 16.8083 18.5839C16.8083 18.5839 16.8083 18.584 16.8083 18.584C16.8083 18.584 16.8083 18.584 16.8083 18.584C16.8083 18.584 16.8083 18.584 16.8083 18.584C16.8083 18.584 16.8083 18.584 16.8083 18.584C16.8083 18.584 16.8083 18.584 16.8083 18.584C16.8083 18.584 16.8083 18.584 16.8083 18.584C16.8083 18.584 16.8083 18.584 16.8083 18.584C16.8083 18.584 16.8083 18.584 16.8083 18.584C16.8083 18.584 16.8083 18.584 16.8083 18.584C16.8083 18.584 16.8083 18.584 16.8083 18.584C16.8083 18.584 16.8083 18.584 16.8083 18.584C16.8083 18.584 16.8083 18.584 16.8083 18.584C16.8083 18.584 16.8083 18.584 16.8083 18.584C16.8083 18.584 16.8083 18.584 16.8083 18.584C16.8083 18.584 16.8083 18.584 16.8083 18.584C16.8083 18.584 16.8083 18.584 16.8083 18.584C16.8083 18.584 16.8083 18.584 16.8083 18.584C16.8083 18.584 16.8083 18.584 16.8083 18.584C16.8083 18.584 16.8083 18.584 16.8083 18.584C16.8083 18.584 16.8083 18.584 16.8083 18.584C16.8083 18.584 16.8083 18.584 16.8083 18.584C16.8083 18.584 16.8083 18.584 16.8083 18.584C16.8083 18.584 16.8083 18.584 16.8083 18.584C16.8083 18.584 16.8083 18.584 16.8083 18.584C16.8083 18.584 16.8083 18.584 16.8083 18.5841C16.8083 18.5841 16.8083 18.5841 16.8083 18.5841C16.8083 18.5841 16.8083 18.5841 16.8083 18.5841C16.8083 18.5841 16.8083 18.5841 16.8083 18.5841C16.8083 18.5841 16.8083 18.5841 16.8083 18.5841C16.8083 18.5841 16.8083 18.5841 16.8083 18.5841C16.8083 18.5841 16.8083 18.5841 16.8083 18.5841C16.8083 18.5841 16.8083 18.5841 16.8083 18.5841C16.8083 18.5841 16.8083 18.5841 16.8083 18.5841C16.8083 18.5841 16.8083 18.5841 16.8083 18.5841C16.8083 18.5841 16.8083 18.5841 16.8083 18.5841C16.8083 18.5841 16.8083 18.5841 16.8083 18.5841C16.8083 18.5841 16.8083 18.5841 16.8083 18.5841C16.8083 18.5841 16.8083 18.5841 16.8083 18.5841C16.8083 18.5841 16.8083 18.5841 16.8083 18.5841C16.8083 18.5841 16.8083 18.5841 16.8083 18.5841C16.8083 18.5841 16.8083 18.5841 16.8083 18.5841C16.8083 18.5841 16.8083 18.5841 16.8083 18.5841C16.8083 18.5841 16.8083 18.5841 16.8083 18.5841C16.8083 18.5841 16.8083 18.5841 16.8083 18.5841C16.8083 18.5841 16.8083 18.5841 16.8083 18.5841C16.8083 18.5841 16.8083 18.5841 16.8083 18.5841C16.8083 18.5841 16.8083 18.5841 16.8083 18.5841C16.8083 18.5841 16.8083 18.5841 16.8083 18.5841C16.8083 18.5841 16.8083 18.5841 16.8083 18.5841C16.8083 18.5841 16.8083 18.5842 16.8083 18.5842C16.8083 18.5842 16.8083 18.5842 16.8083 18.5842C16.8083 18.5842 16.8083 18.5842 16.8083 18.5842C16.8083 18.5842 16.8083 18.5842 16.8083 18.5842C16.8083 18.5842 16.8083 18.5842 16.8083 18.5842C16.8083 18.5842 16.8083 18.5842 16.8083 18.5842C16.8083 18.5842 16.8083 18.5842 16.8083 18.5842C16.8083 18.5842 16.8083 18.5842 16.8083 18.5842C16.8083 18.5842 16.8083 18.5842 16.8083 18.5842C16.8083 18.5842 16.8083 18.5842 16.8083 18.5842C16.8083 18.5842 16.8083 18.5842 16.8083 18.5842C16.8083 18.5842 16.8083 18.5842 16.8083 18.5842C16.8083 18.5842 16.8083 18.5842 16.8083 18.5842C16.8083 18.5842 16.8083 18.5842 16.8083 18.5842C16.8083 18.5842 16.8083 18.5842 16.8083 18.5842C16.8083 18.5842 16.8083 18.5842 16.8083 18.5842C16.8083 18.5842 16.8083 18.5842 16.8083 18.5842C16.8083 18.5842 16.8083 18.5842 16.8083 18.5842C16.8083 18.5842 16.8083 18.5842 16.8083 18.5842C16.8083 18.5842 16.8083 18.5842 16.8083 18.5842C16.8083 18.5842 16.8083 18.5842 16.8083 18.5842C16.8083 18.5842 16.8083 18.5842 16.8083 18.5842C16.8083 18.5842 16.8083 18.5842 16.8083 18.5842C16.8083 18.5842 16.8083 18.5842 16.8083 18.5842C16.8083 18.5842 16.8083 18.5842 16.8083 18.5842C16.8083 18.5843 16.8083 18.5843 16.8083 18.5843C16.8083 18.5843 16.8083 18.5843 16.8083 18.5843C16.8083 18.5843 16.8083 18.5843 16.8083 18.5843C16.8083 18.5843 16.8083 18.5843 16.8083 18.5843C16.8083 18.5843 16.8083 18.5843 16.8083 18.5843C16.8083 18.5843 16.8083 18.5843 16.8083 18.5843C16.8083 18.5843 16.8083 18.5843 16.8083 18.5843C16.8083 18.5843 16.8083 18.5843 16.8083 18.5843C16.8083 18.5843 16.8083 18.5843 16.8083 18.5843C16.8083 18.5843 16.8083 18.5843 16.8083 18.5843C16.8083 18.5843 16.8083 18.5843 16.8083 18.5843C16.8083 18.5843 16.8083 18.5843 16.8083 18.5843C16.8083 18.5843 16.8083 18.5843 16.8083 18.5843C16.8083 18.5843 16.8083 18.5843 16.8083 18.5843C16.8083 18.5843 16.8083 18.5843 16.8083 18.5843C16.8083 18.5843 16.8083 18.5843 16.8083 18.5843C16.8083 18.5843 16.8083 18.5843 16.8083 18.5843C16.8083 18.5843 16.8083 18.5843 16.8083 18.5843C16.8083 18.5843 16.8083 18.5843 16.8083 18.5843C16.8083 18.5843 16.8083 18.5843 16.8083 18.5843C16.8083 18.5843 16.8083 18.5843 16.8083 18.5843C16.8083 18.5843 16.8083 18.5843 16.8083 18.5843C16.8083 18.5843 16.8083 18.5843 16.8083 18.5843C16.8083 18.5843 16.8083 18.5843 16.8083 18.5843C16.8083 18.5843 16.8083 18.5843 16.8083 18.5844C16.8083 18.5844 16.8083 18.5844 16.8083 18.5844C16.8083 18.5844 16.8083 18.5844 16.8083 18.5844C16.8083 18.5844 16.8083 18.5844 16.8083 18.5844C16.8083 18.5844 16.8083 18.5844 16.8083 18.5844C16.8083 18.5844 16.8083 18.5844 16.8083 18.5844C16.8083 18.5844 16.8083 18.5844 16.8083 18.5844C16.8083 18.5844 16.8083 18.5844 16.8083 18.5844C16.8083 18.5844 16.8083 18.5844 16.8083 18.5844C16.8083 18.5844 16.8083 18.5844 16.8083 18.5844C16.8083 18.5844 16.8083 18.5844 16.8083 18.5844C16.8083 18.5844 16.8083 18.5844 16.8083 18.5844C16.8083 18.5844 16.8083 18.5844 16.8083 18.5844C16.8083 18.5844 16.8083 18.5844 16.8083 18.5844C16.8083 18.5844 16.8083 18.5844 16.8083 18.5844C16.8083 18.5844 16.8083 18.5844 16.8083 18.5844C16.8083 18.5844 16.8083 18.5844 16.8083 18.5844C16.8083 18.5844 16.8083 18.5844 16.8083 18.5844C16.8083 18.5844 16.8083 18.5844 16.8083 18.5844C16.8083 18.5844 16.8083 18.5844 16.8083 18.5844C16.8083 18.5844 16.8083 18.5844 16.8083 18.5844C16.8083 18.5844 16.8083 18.5844 16.8083 18.5844C16.8083 18.5844 16.8083 18.5844 16.8083 18.5844C16.8083 18.5844 16.8083 18.5844 16.8083 18.5844C16.8083 18.5844 16.8083 18.5844 16.8083 18.5844C16.8083 18.5844 16.8083 18.5845 16.8083 18.5845C16.8083 18.5845 16.8083 18.5845 16.8083 18.5845C16.8083 18.5845 16.8083 18.5845 16.8083 18.5845C16.8083 18.5845 16.8083 18.5845 16.8083 18.5845C16.8083 18.5845 16.8083 18.5845 16.8083 18.5845C16.8083 18.5845 16.8083 18.5845 16.8083 18.5845C16.8083 18.5845 16.8083 18.5845 16.8083 18.5845C16.8083 18.5845 16.8083 18.5845 16.8083 18.5845C16.8083 18.5845 16.8083 18.5845 16.8083 18.5845C16.8083 18.5845 16.8083 18.5845 16.8083 18.5845C16.8083 18.5845 16.8083 18.5845 16.8083 18.5845C16.8083 18.5845 16.8083 18.5845 16.8083 18.5845C16.8083 18.5845 16.8083 18.5845 16.8083 18.5845C16.8083 18.5845 16.8083 18.5845 16.8083 18.5845C16.8083 18.5845 16.8083 18.5845 16.8083 18.5845C16.8083 18.5845 16.8083 18.5845 16.8083 18.5845C16.8083 18.5845 16.8083 18.5845 16.8083 18.5845C16.8083 18.5845 16.8083 18.5845 16.8083 18.5845C16.8083 18.5845 16.8083 18.5845 16.8083 18.5845C16.8083 18.5845 16.8083 18.5845 16.8083 18.5845C16.8083 18.5845 16.8083 18.5845 16.8083 18.5845C16.8083 18.5845 16.8083 18.5845 16.8083 18.5845C16.8083 18.5845 16.8083 18.5845 16.8083 18.5845C16.8083 18.5845 16.8083 18.5845 16.8083 18.5845C16.8083 18.5845 16.8083 18.5845 16.8083 18.5846C16.8083 18.5846 16.8083 18.5846 16.8083 18.5846C16.8083 18.5846 16.8083 18.5846 16.8083 18.5846C16.8083 18.5846 16.8083 18.5846 16.8083 18.5846C16.8083 18.5846 16.8083 18.5846 16.8083 18.5846C16.8083 18.5846 16.8083 18.5846 16.8083 18.5846C16.8083 18.5846 16.8083 18.5846 16.8083 18.5846C16.8083 18.5846 16.8083 18.5846 16.8083 18.5846C16.8083 18.5846 16.8083 18.5846 16.8083 18.5846C16.8083 18.5846 16.8083 18.5846 16.8083 18.5846C16.8083 18.5846 16.8083 18.5846 16.8083 18.5846C16.8083 18.5846 16.8083 18.5846 16.8083 18.5846C16.8083 18.5846 16.8083 18.5846 16.8083 18.5846C16.8083 18.5846 16.8083 18.5846 16.8083 18.5846C16.8083 18.5846 16.8083 18.5846 16.8083 18.5846C16.8083 18.5846 16.8083 18.5846 16.8083 18.5846C16.8083 18.5846 16.8083 18.5846 16.8083 18.5846C16.8083 18.5846 16.8083 18.5846 16.8083 18.5846C16.8083 18.5846 16.8083 18.5846 16.8083 18.5846C16.8083 18.5846 16.8083 18.5846 16.8083 18.5846C16.8083 18.5846 16.8083 18.5846 16.8083 18.5846C16.8083 18.5846 16.8083 18.5846 16.8083 18.5846C16.8083 18.5846 16.8083 18.5846 16.8083 18.5846C16.8083 18.5846 16.8083 18.5846 16.8083 18.5846C16.8083 18.5846 16.8083 18.5846 16.8083 18.5846C16.8083 18.5846 16.8083 18.5847 16.8083 18.5847C16.8083 18.5847 16.8083 18.5847 16.8083 18.5847C16.8083 18.5847 16.8083 18.5847 16.8083 18.5847C16.8083 18.5847 16.8083 18.5847 16.8083 18.5847C16.8083 18.5847 16.8083 18.5847 16.8083 18.5847C16.8083 18.5847 16.8083 18.5847 16.8083 18.5847C16.8083 18.5847 16.8083 18.5847 16.8083 18.5847C16.8083 18.5847 16.8083 18.5847 16.8083 18.5847C16.8083 18.5847 16.8083 18.5847 16.8083 18.5847C16.8083 18.5847 16.8083 18.5847 16.8083 18.5847C16.8083 18.5847 16.8083 18.5847 16.8083 18.5847C16.8083 18.5847 16.8083 18.5847 16.8083 18.5847C16.8083 18.5847 16.8083 18.5847 16.8083 18.5847C16.8083 18.5847 16.8083 18.5847 16.8083 18.5847C16.8083 18.5847 16.8083 18.5847 16.8083 18.5847C16.8083 18.5847 16.8083 18.5847 16.8083 18.5847C16.8083 18.5847 16.8083 18.5847 16.8083 18.5847C16.8083 18.5847 16.8083 18.5847 16.8083 18.5847C16.8083 18.5847 16.8083 18.5847 16.8083 18.5847C16.8083 18.5847 16.8083 18.5847 16.8083 18.5847C16.8083 18.5847 16.8083 18.5847 16.8083 18.5847C16.8083 18.5847 16.8083 18.5847 16.8083 18.5847C16.8083 18.5847 16.8083 18.5847 16.8083 18.5847C16.8083 18.5847 16.8083 18.5847 16.8083 18.5847C16.8083 18.5847 16.8083 18.5847 16.8083 18.5847C16.8083 18.5848 16.8083 18.5848 16.8083 18.5848C16.8083 18.5848 16.8083 18.5848 16.8083 18.5848C16.8083 18.5848 16.8083 18.5848 16.8083 18.5848C16.8083 18.5848 16.8083 18.5848 16.8083 18.5848C16.8083 18.5848 16.8083 18.5848 16.8083 18.5848C16.8083 18.5848 16.8083 18.5848 16.8083 18.5848C16.8083 18.5848 16.8083 18.5848 16.8083 18.5848C16.8083 18.5848 16.8083 18.5848 16.8083 18.5848C16.8083 18.5848 16.8083 18.5848 16.8083 18.5848C16.8083 18.5848 16.8083 18.5848 16.8083 18.5848C16.8083 18.5848 16.8083 18.5848 16.8083 18.5848C16.8083 18.5848 16.8083 18.5848 16.8083 18.5848C16.8083 18.5848 16.8083 18.5848 16.8083 18.5848C16.8083 18.5848 16.8083 18.5848 16.8083 18.5848C16.8083 18.5848 16.8083 18.5848 16.8083 18.5848C16.8083 18.5848 16.8083 18.5848 16.8083 18.5848C16.8083 18.5848 16.8083 18.5848 16.8083 18.5848C16.8083 18.5848 16.8083 18.5848 16.8083 18.5848C16.8083 18.5848 16.8083 18.5848 16.8083 18.5848C16.8083 18.5848 16.8083 18.5848 16.8083 18.5848C16.8083 18.5848 16.8083 18.5848 16.8083 18.5848C16.8083 18.5848 16.8083 18.5848 16.8083 18.5848C16.8083 18.5848 16.8083 18.5848 16.8083 18.5848C16.8083 18.5848 16.8083 18.5848 16.8083 18.5848C16.8083 18.5848 16.8083 18.5848 16.8083 18.5849C16.8083 18.5849 16.8083 18.5849 16.8083 18.5849C16.8083 18.5849 16.8083 18.5849 16.8083 18.5849C16.8083 18.5849 16.8083 18.5849 16.8083 18.5849C16.8083 18.5849 16.8083 18.5849 16.8083 18.5849C16.8083 18.5849 16.8083 18.5849 16.8083 18.5849C16.8083 18.5849 16.8083 18.5849 16.8083 18.5849C16.8083 18.5849 16.8083 18.5849 16.8083 18.5849C16.8083 18.5849 16.8083 18.5849 16.8083 18.5849C16.8083 18.5849 16.8083 18.5849 16.8083 18.5849C16.8083 18.5849 16.8083 18.5849 16.8083 18.5849C16.8083 18.5849 16.8083 18.5849 16.8083 18.5849C16.8083 18.5849 16.8083 18.5849 16.8083 18.5849C16.8083 18.5849 16.8083 18.5849 16.8083 18.5849C16.8083 18.5849 16.8083 18.5849 16.8083 18.5849C16.8083 18.5849 16.8083 18.5849 16.8083 18.5849C16.8083 18.5849 16.8083 18.5849 16.8083 18.5849C16.8083 18.5849 16.8083 18.5849 16.8083 18.5849C16.8083 18.5849 16.8083 18.5849 16.8083 18.5849C16.8083 18.5849 16.8083 18.5849 16.8083 18.5849C16.8083 18.5849 16.8083 18.5849 16.8083 18.5849C16.8083 18.5849 16.8083 18.5849 16.8083 18.5849C16.8083 18.5849 16.8083 18.5849 16.8083 18.5849C16.8083 18.5849 16.8083 18.5849 16.8083 18.5849C16.8083 18.5849 16.8083 18.5849 16.8083 18.5849C16.8083 18.585 16.8083 18.585 16.8083 18.585C16.8083 18.585 16.8083 18.585 16.8083 18.585C16.8083 18.585 16.8083 18.585 16.8083 18.585C16.8083 18.585 16.8083 18.585 16.8083 18.585C16.8083 18.585 16.8083 18.585 16.8083 18.585C16.8083 18.585 16.8083 18.585 16.8083 18.585C16.8083 18.585 16.8083 18.585 16.8083 18.585C16.8083 18.585 16.8083 18.585 16.8083 18.585C16.8083 18.585 16.8083 18.585 16.8083 18.585C16.8083 18.585 16.8083 18.585 16.8083 18.585C16.8083 18.585 16.8083 18.585 16.8083 18.585C16.8083 18.585 16.8083 18.585 16.8083 18.585C16.8083 18.585 16.8083 18.585 16.8083 18.585C16.8083 18.585 16.8083 18.585 16.8083 18.585C16.8083 18.585 16.8083 18.585 16.8083 18.585C16.8083 18.585 16.8083 18.585 16.8083 18.585C16.8083 18.585 16.8083 18.585 16.8083 18.585C16.8083 18.585 16.8083 18.585 16.8083 18.585C16.8083 18.585 16.8083 18.585 16.8083 18.585C16.8083 18.585 16.8083 18.585 16.8083 18.585C16.8083 18.585 16.8083 18.585 16.8083 18.585C16.8083 18.585 16.8083 18.585 16.8083 18.585C16.8083 18.585 16.8083 18.585 16.8083 18.585C16.8083 18.585 16.8083 18.585 16.8083 18.585C16.8083 18.585 16.8083 18.585 16.8083 18.5851C16.8083 18.5851 16.8083 18.5851 16.8083 18.5851C16.8083 18.5851 16.8083 18.5851 16.8083 18.5851C16.8083 18.5851 16.8083 18.5851 16.8083 18.5851C16.8083 18.5851 16.8083 18.5851 16.8083 18.5851C16.8083 18.5851 16.8083 18.5851 16.8083 18.5851C16.8083 18.5851 16.8083 18.5851 16.8083 18.5851C16.8083 18.5851 16.8083 18.5851 16.8083 18.5851C16.8083 18.5851 16.8083 18.5851 16.8083 18.5851C16.8083 18.5851 16.8083 18.5851 16.8083 18.5851C16.8083 18.5851 16.8083 18.5851 16.8083 18.5851C16.8083 18.5851 16.8083 18.5851 16.8083 18.5851C16.8083 18.5851 16.8083 18.5851 16.8083 18.5851C16.8083 18.5851 16.8083 18.5851 16.8083 18.5851C16.8083 18.5851 16.8083 18.5851 16.8083 18.5851C16.8083 18.5851 16.8083 18.5851 16.8083 18.5851C16.8083 18.5851 16.8083 18.5851 16.8083 18.5851C16.8083 18.5851 16.8083 18.5851 16.8083 18.5851C16.8083 18.5851 16.8083 18.5851 16.8083 18.5851C16.8083 18.5851 16.8083 18.5851 16.8083 18.5851C16.8083 18.5851 16.8083 18.5851 16.8083 18.5851C16.8083 18.5851 16.8083 18.5851 16.8083 18.5851C16.8083 18.5851 16.8083 18.5851 16.8083 18.5851C16.8083 18.5851 16.8083 18.5851 16.8083 18.5851C16.8083 18.5851 16.8083 18.5851 16.8083 18.5851C16.8083 18.5851 16.8083 18.5852 16.8083 18.5852C16.8083 18.5852 16.8083 18.5852 16.8083 18.5852C16.8083 18.5852 16.8083 18.5852 16.8083 18.5852C16.8083 18.5852 16.8083 18.5852 16.8083 18.5852C16.8083 18.5852 16.8083 18.5852 16.8083 18.5852C16.8083 18.5852 16.8083 18.5852 16.8083 18.5852C16.8083 18.5852 16.8083 18.5852 16.8083 18.5852C16.8083 18.5852 16.8083 18.5852 16.8083 18.5852C16.8083 18.5852 16.8083 18.5852 16.8083 18.5852C16.8083 18.5852 16.8083 18.5852 16.8083 18.5852C16.8083 18.5852 16.8083 18.5852 16.8083 18.5852C16.8083 18.5852 16.8083 18.5852 16.8083 18.5852C16.8083 18.5852 16.8083 18.5852 16.8083 18.5852C16.8083 18.5852 16.8083 18.5852 16.8083 18.5852C16.8083 18.5852 16.8083 18.5852 16.8083 18.5852C16.8083 18.5852 16.8083 18.5852 16.8083 18.5852C16.8083 18.5852 16.8083 18.5852 16.8083 18.5852C16.8083 18.5852 16.8083 18.5852 16.8083 18.5852C16.8083 18.5852 16.8083 18.5852 16.8083 18.5852C16.8083 18.5852 16.8083 18.5852 16.8083 18.5852C16.8083 18.5852 16.8083 18.5852 16.8083 18.5852C16.8083 18.5852 16.8083 18.5852 16.8083 18.5852C16.8083 18.5852 16.8083 18.5852 16.8083 18.5852C16.8083 18.5852 16.8083 18.5852 16.8083 18.5852C16.8083 18.5852 16.8083 18.5852 16.8083 18.5852C16.8083 18.5853 16.8083 18.5853 16.8083 18.5853C16.8083 18.5853 16.8083 18.5853 16.8083 18.5853C16.8083 18.5853 16.8083 18.5853 16.8083 18.5853C16.8083 18.5853 16.8083 18.5853 16.8083 18.5853C16.8083 18.5853 16.8083 18.5853 16.8083 18.5853C16.8083 18.5853 16.8083 18.5853 16.8083 18.5853C16.8083 18.5853 16.8083 18.5853 16.8083 18.5853C16.8083 18.5853 16.8083 18.5853 16.8083 18.5853C16.8083 18.5853 16.8083 18.5853 16.8083 18.5853C16.8083 18.5853 16.8083 18.5853 16.8083 18.5853C16.8083 18.5853 16.8083 18.5853 16.8083 18.5853C16.8083 18.5853 16.8083 18.5853 16.8083 18.5853C16.8083 18.5853 16.8083 18.5853 16.8083 18.5853C16.8083 18.5853 16.8083 18.5853 16.8083 18.5853C16.8083 18.5853 16.8083 18.5853 16.8083 18.5853C16.8083 18.5853 16.8083 18.5853 16.8083 18.5853C16.8083 18.5853 16.8083 18.5853 16.8083 18.5853C16.8083 18.5853 16.8083 18.5853 16.8083 18.5853C16.8083 18.5853 16.8083 18.5853 16.8083 18.5853C16.8083 18.5853 16.8083 18.5853 16.8083 18.5853C16.8083 18.5853 16.8083 18.5853 16.8083 18.5853C16.8083 18.5853 16.8083 18.5853 16.8083 18.5853C16.8083 18.5853 16.8083 18.5853 16.8083 18.5853C16.8083 18.5853 16.8083 18.5853 16.8083 18.5853C16.8083 18.5853 16.8083 18.5854 16.8083 18.5854C16.8083 18.5854 16.8083 18.5854 16.8083 18.5854C16.8083 18.5854 16.8083 18.5854 16.8083 18.5854C16.8083 18.5854 16.8083 18.5854 16.8083 18.5854C16.8083 18.5854 16.8083 18.5854 16.8083 18.5854C16.8083 18.5854 16.8083 18.5854 16.8083 18.5854C16.8083 18.5854 16.8083 18.5854 16.8083 18.5854C16.8083 18.5854 16.8083 18.5854 16.8083 18.5854C16.8083 18.5854 16.8083 18.5854 16.8083 18.5854C16.8083 18.5854 16.8083 18.5854 16.8083 18.5854C16.8083 18.5854 16.8083 18.5854 16.8083 18.5854C16.8083 18.5854 16.8083 18.5854 16.8083 18.5854C16.8083 18.5854 16.8083 18.5854 16.8083 18.5854C16.8083 18.5854 16.8083 18.5854 16.8083 18.5854C16.8083 18.5854 16.8083 18.5854 16.8083 18.5854C16.8083 18.5854 16.8083 18.5854 16.8083 18.5854C16.8083 18.5854 16.8083 18.5854 16.8083 18.5854C16.8083 18.5854 16.8083 18.5854 16.8083 18.5854C16.8083 18.5854 16.8083 18.5854 16.8083 18.5854C16.8083 18.5854 16.8083 18.5854 16.8083 18.5854C16.8083 18.5854 16.8083 18.5854 16.8083 18.5854C16.8083 18.5854 16.8083 18.5854 16.8083 18.5854C16.8083 18.5854 16.8083 18.5854 16.8083 18.5854C16.8083 18.5854 16.8083 18.5854 16.8083 18.5854C16.8083 18.5854 16.8083 18.5854 16.8083 18.5854C16.8083 18.5855 16.8083 18.5855 16.8083 18.5855C16.8083 18.5855 16.8083 18.5855 16.8083 18.5855C16.8083 18.5855 16.8083 18.5855 16.8083 18.5855C16.8083 18.5855 16.8083 18.5855 16.8083 18.5855C16.8083 18.5855 16.8083 18.5855 16.8083 18.5855C16.8083 18.5855 16.8083 18.5855 16.8083 18.5855C16.8083 18.5855 16.8083 18.5855 16.8083 18.5855C16.8083 18.5855 16.8083 18.5855 16.8083 18.5855C16.8083 18.5855 16.8083 18.5855 16.8083 18.5855C16.8083 18.5855 16.8083 18.5855 16.8083 18.5855C16.8083 18.5855 16.8083 18.5855 16.8083 18.5855C16.8083 18.5855 16.8083 18.5855 16.8083 18.5855C16.8083 18.5855 16.8083 18.5855 16.8083 18.5855C16.8083 18.5855 16.8083 18.5855 16.8083 18.5855C16.8083 18.5855 16.8083 18.5855 16.8083 18.5855C16.8083 18.5855 16.8083 18.5855 16.8083 18.5855C16.8083 18.5855 16.8083 18.5855 16.8083 18.5855C16.8083 18.5855 16.8083 18.5855 16.8083 18.5855C16.8083 18.5855 16.8083 18.5855 16.8083 18.5855C16.8083 18.5855 16.8083 18.5855 16.8083 18.5855C16.8083 18.5855 16.8083 18.5855 16.8083 18.5855C16.8083 18.5855 16.8083 18.5855 16.8083 18.5855C16.8083 18.5855 16.8083 18.5855 16.8083 18.5855C16.8083 18.5855 16.8083 18.5855 16.8083 18.5855C16.8083 18.5855 16.8083 18.5855 16.8083 18.5856C16.8083 18.5856 16.8083 18.5856 16.8083 18.5856C16.8083 18.5856 16.8083 18.5856 16.8083 18.5856C16.8083 18.5856 16.8083 18.5856 16.8083 18.5856C16.8083 18.5856 16.8083 18.5856 16.8083 18.5856C16.8083 18.5856 16.8083 18.5856 16.8083 18.5856C16.8083 18.5856 16.8083 18.5856 16.8083 18.5856C16.8083 18.5856 16.8083 18.5856 16.8083 18.5856C16.8083 18.5856 16.8083 18.5856 16.8083 18.5856C16.8083 18.5856 16.8083 18.5856 16.8083 18.5856C16.8083 18.5856 16.8083 18.5856 16.8083 18.5856C16.8083 18.5856 16.8083 18.5856 16.8083 18.5856C16.8083 18.5856 16.8083 18.5856 16.8083 18.5856C16.8083 18.5856 16.8083 18.5856 16.8083 18.5856C16.8083 18.5856 16.8083 18.5856 16.8083 18.5856C16.8083 18.5856 16.8083 18.5856 16.8083 18.5856C16.8083 18.5856 16.8083 18.5856 16.8083 18.5856C16.8083 18.5856 16.8083 18.5856 16.8083 18.5856C16.8083 18.5856 16.8083 18.5856 16.8083 18.5856C16.8083 18.5856 16.8083 18.5856 16.8083 18.5856C16.8083 18.5856 16.8083 18.5856 16.8083 18.5856C16.8083 18.5856 16.8083 18.5856 16.8083 18.5856C16.8083 18.5856 16.8083 18.5856 16.8083 18.5856C16.8083 18.5856 16.8083 18.5856 16.8083 18.5856C16.8083 18.5856 16.8083 18.5856 16.8083 18.5856C16.8083 18.5856 16.8083 18.5857 16.8083 18.5857C16.8083 18.5857 16.8083 18.5857 16.8083 18.5857C16.8083 18.5857 16.8083 18.5857 16.8083 18.5857C16.8083 18.5857 16.8083 18.5857 16.8083 18.5857C16.8083 18.5857 16.8083 18.5857 16.8083 18.5857C16.8083 18.5857 16.8083 18.5857 16.8083 18.5857C16.8083 18.5857 16.8083 18.5857 16.8083 18.5857C16.8083 18.5857 16.8083 18.5857 16.8083 18.5857C16.8083 18.5857 16.8083 18.5857 16.8083 18.5857C16.8083 18.5857 16.8083 18.5857 16.8083 18.5857C16.8083 18.5857 16.8083 18.5857 16.8083 18.5857C16.8083 18.5857 16.8083 18.5857 16.8083 18.5857C16.8083 18.5857 16.8083 18.5857 16.8083 18.5857C16.8083 18.5857 16.8083 18.5857 16.8083 18.5857C16.8083 18.5857 16.8083 18.5857 16.8083 18.5857C16.8083 18.5857 16.8083 18.5857 16.8083 18.5857C16.8083 18.5857 16.8083 18.5857 16.8083 18.5857C16.8083 18.5857 16.8083 18.5857 16.8083 18.5857C16.8083 18.5857 16.8083 18.5857 16.8083 18.5857C16.8083 18.5857 16.8083 18.5857 16.8083 18.5857C16.8083 18.5857 16.8083 18.5857 16.8083 18.5857C16.8083 18.5857 16.8083 18.5857 16.8083 18.5857C16.8083 18.5857 16.8083 18.5857 16.8083 18.5857C16.8083 18.5857 16.8083 18.5857 16.8083 18.5857C16.8083 18.5857 16.8083 18.5857 16.8083 18.5858C16.8083 18.5858 16.8083 18.5858 16.8083 18.5858C16.8083 18.5858 16.8083 18.5858 16.8083 18.5858C16.8083 18.5858 16.8083 18.5858 16.8083 18.5858C16.8083 18.5858 16.8083 18.5858 16.8083 18.5858C16.8083 18.5858 16.8083 18.5858 16.8083 18.5858C16.8083 18.5858 16.8083 18.5858 16.8083 18.5858C16.8083 18.5858 16.8083 18.5858 16.8083 18.5858C16.8083 18.5858 16.8083 18.5858 16.8083 18.5858C16.8083 18.5858 16.8083 18.5858 16.8083 18.5858C16.8083 18.5858 16.8083 18.5858 16.8083 18.5858C16.8083 18.5858 16.8083 18.5858 16.8083 18.5858C16.8083 18.5858 16.8083 18.5858 16.8083 18.5858C16.8083 18.5858 16.8083 18.5858 16.8083 18.5858C16.8083 18.5858 16.8083 18.5858 16.8083 18.5858C16.8083 18.5858 16.8083 18.5858 16.8083 18.5858C16.8083 18.5858 16.8083 18.5858 16.8083 18.5858C16.8083 18.5858 16.8083 18.5858 16.8083 18.5858C16.8083 18.5858 16.8083 18.5858 16.8083 18.5858C16.8083 18.5858 16.8083 18.5858 16.8083 18.5858C16.8083 18.5858 16.8083 18.5858 16.8083 18.5858C16.8083 18.5858 16.8083 18.5858 16.8083 18.5858C16.8083 18.5858 16.8083 18.5858 16.8083 18.5858C16.8083 18.5858 16.8083 18.5858 16.8083 18.5858C16.8083 18.5858 16.8083 18.5858 16.8083 18.5858C16.8083 18.5858 16.8083 18.5859 16.8083 18.5859C16.8083 18.5859 16.8083 18.5859 16.8083 18.5859C16.8083 18.5859 16.8083 18.5859 16.8083 18.5859C16.8083 18.5859 16.8083 18.5859 16.8083 18.5859C16.8083 18.5859 16.8083 18.5859 16.8083 18.5859C16.8083 18.5859 16.8083 18.5859 16.8083 18.5859C16.8083 18.5859 16.8083 18.5859 16.8083 18.5859C16.8083 18.5859 16.8083 18.5859 16.8083 18.5859C16.8083 18.5859 16.8083 18.5859 16.8083 18.5859C16.8083 18.5859 16.8083 18.5859 16.8083 18.5859C16.8083 18.5859 16.8083 18.5859 16.8083 18.5859C16.8083 18.5859 16.8083 18.5859 16.8083 18.5859C16.8083 18.5859 16.8083 18.5859 16.8083 18.5859C16.8083 18.5859 16.8083 18.5859 16.8083 18.5859C16.8083 18.5859 16.8083 18.5859 16.8083 18.5859C16.8083 18.5859 16.8083 18.5859 16.8083 18.5859C16.8083 18.5859 16.8083 18.5859 16.8083 18.5859C16.8083 18.5859 16.8083 18.5859 16.8083 18.5859C16.8083 18.5859 16.8083 18.5859 16.8083 18.5859C16.8083 18.5859 16.8083 18.5859 16.8083 18.5859C16.8083 18.5859 16.8083 18.5859 16.8083 18.5859C16.8083 18.5859 16.8083 18.5859 16.8083 18.5859H18.8083C18.8083 18.5859 18.8083 18.5859 18.8083 18.5859C18.8083 18.5859 18.8083 18.5859 18.8083 18.5859C18.8083 18.5859 18.8083 18.5859 18.8083 18.5859C18.8083 18.5859 18.8083 18.5859 18.8083 18.5859C18.8083 18.5859 18.8083 18.5859 18.8083 18.5859C18.8083 18.5859 18.8083 18.5859 18.8083 18.5859C18.8083 18.5859 18.8083 18.5859 18.8083 18.5859C18.8083 18.5859 18.8083 18.5859 18.8083 18.5859C18.8083 18.5859 18.8083 18.5859 18.8083 18.5859C18.8083 18.5859 18.8083 18.5859 18.8083 18.5859C18.8083 18.5859 18.8083 18.5859 18.8083 18.5859C18.8083 18.5859 18.8083 18.5859 18.8083 18.5859C18.8083 18.5859 18.8083 18.5859 18.8083 18.5859C18.8083 18.5859 18.8083 18.5859 18.8083 18.5859C18.8083 18.5859 18.8083 18.5859 18.8083 18.5859C18.8083 18.5859 18.8083 18.5859 18.8083 18.5859C18.8083 18.5859 18.8083 18.5859 18.8083 18.5859C18.8083 18.5859 18.8083 18.5859 18.8083 18.5859C18.8083 18.5859 18.8083 18.5859 18.8083 18.5859C18.8083 18.5859 18.8083 18.5859 18.8083 18.5859C18.8083 18.5859 18.8083 18.5859 18.8083 18.5859C18.8083 18.5859 18.8083 18.5858 18.8083 18.5858C18.8083 18.5858 18.8083 18.5858 18.8083 18.5858C18.8083 18.5858 18.8083 18.5858 18.8083 18.5858C18.8083 18.5858 18.8083 18.5858 18.8083 18.5858C18.8083 18.5858 18.8083 18.5858 18.8083 18.5858C18.8083 18.5858 18.8083 18.5858 18.8083 18.5858C18.8083 18.5858 18.8083 18.5858 18.8083 18.5858C18.8083 18.5858 18.8083 18.5858 18.8083 18.5858C18.8083 18.5858 18.8083 18.5858 18.8083 18.5858C18.8083 18.5858 18.8083 18.5858 18.8083 18.5858C18.8083 18.5858 18.8083 18.5858 18.8083 18.5858C18.8083 18.5858 18.8083 18.5858 18.8083 18.5858C18.8083 18.5858 18.8083 18.5858 18.8083 18.5858C18.8083 18.5858 18.8083 18.5858 18.8083 18.5858C18.8083 18.5858 18.8083 18.5858 18.8083 18.5858C18.8083 18.5858 18.8083 18.5858 18.8083 18.5858C18.8083 18.5858 18.8083 18.5858 18.8083 18.5858C18.8083 18.5858 18.8083 18.5858 18.8083 18.5858C18.8083 18.5858 18.8083 18.5858 18.8083 18.5858C18.8083 18.5858 18.8083 18.5858 18.8083 18.5858C18.8083 18.5858 18.8083 18.5858 18.8083 18.5858C18.8083 18.5858 18.8083 18.5858 18.8083 18.5858C18.8083 18.5858 18.8083 18.5858 18.8083 18.5858C18.8083 18.5858 18.8083 18.5858 18.8083 18.5858C18.8083 18.5858 18.8083 18.5858 18.8083 18.5858C18.8083 18.5857 18.8083 18.5857 18.8083 18.5857C18.8083 18.5857 18.8083 18.5857 18.8083 18.5857C18.8083 18.5857 18.8083 18.5857 18.8083 18.5857C18.8083 18.5857 18.8083 18.5857 18.8083 18.5857C18.8083 18.5857 18.8083 18.5857 18.8083 18.5857C18.8083 18.5857 18.8083 18.5857 18.8083 18.5857C18.8083 18.5857 18.8083 18.5857 18.8083 18.5857C18.8083 18.5857 18.8083 18.5857 18.8083 18.5857C18.8083 18.5857 18.8083 18.5857 18.8083 18.5857C18.8083 18.5857 18.8083 18.5857 18.8083 18.5857C18.8083 18.5857 18.8083 18.5857 18.8083 18.5857C18.8083 18.5857 18.8083 18.5857 18.8083 18.5857C18.8083 18.5857 18.8083 18.5857 18.8083 18.5857C18.8083 18.5857 18.8083 18.5857 18.8083 18.5857C18.8083 18.5857 18.8083 18.5857 18.8083 18.5857C18.8083 18.5857 18.8083 18.5857 18.8083 18.5857C18.8083 18.5857 18.8083 18.5857 18.8083 18.5857C18.8083 18.5857 18.8083 18.5857 18.8083 18.5857C18.8083 18.5857 18.8083 18.5857 18.8083 18.5857C18.8083 18.5857 18.8083 18.5857 18.8083 18.5857C18.8083 18.5857 18.8083 18.5857 18.8083 18.5857C18.8083 18.5857 18.8083 18.5857 18.8083 18.5857C18.8083 18.5857 18.8083 18.5857 18.8083 18.5857C18.8083 18.5857 18.8083 18.5857 18.8083 18.5857C18.8083 18.5857 18.8083 18.5856 18.8083 18.5856C18.8083 18.5856 18.8083 18.5856 18.8083 18.5856C18.8083 18.5856 18.8083 18.5856 18.8083 18.5856C18.8083 18.5856 18.8083 18.5856 18.8083 18.5856C18.8083 18.5856 18.8083 18.5856 18.8083 18.5856C18.8083 18.5856 18.8083 18.5856 18.8083 18.5856C18.8083 18.5856 18.8083 18.5856 18.8083 18.5856C18.8083 18.5856 18.8083 18.5856 18.8083 18.5856C18.8083 18.5856 18.8083 18.5856 18.8083 18.5856C18.8083 18.5856 18.8083 18.5856 18.8083 18.5856C18.8083 18.5856 18.8083 18.5856 18.8083 18.5856C18.8083 18.5856 18.8083 18.5856 18.8083 18.5856C18.8083 18.5856 18.8083 18.5856 18.8083 18.5856C18.8083 18.5856 18.8083 18.5856 18.8083 18.5856C18.8083 18.5856 18.8083 18.5856 18.8083 18.5856C18.8083 18.5856 18.8083 18.5856 18.8083 18.5856C18.8083 18.5856 18.8083 18.5856 18.8083 18.5856C18.8083 18.5856 18.8083 18.5856 18.8083 18.5856C18.8083 18.5856 18.8083 18.5856 18.8083 18.5856C18.8083 18.5856 18.8083 18.5856 18.8083 18.5856C18.8083 18.5856 18.8083 18.5856 18.8083 18.5856C18.8083 18.5856 18.8083 18.5856 18.8083 18.5856C18.8083 18.5856 18.8083 18.5856 18.8083 18.5856C18.8083 18.5856 18.8083 18.5856 18.8083 18.5856C18.8083 18.5856 18.8083 18.5856 18.8083 18.5856C18.8083 18.5855 18.8083 18.5855 18.8083 18.5855C18.8083 18.5855 18.8083 18.5855 18.8083 18.5855C18.8083 18.5855 18.8083 18.5855 18.8083 18.5855C18.8083 18.5855 18.8083 18.5855 18.8083 18.5855C18.8083 18.5855 18.8083 18.5855 18.8083 18.5855C18.8083 18.5855 18.8083 18.5855 18.8083 18.5855C18.8083 18.5855 18.8083 18.5855 18.8083 18.5855C18.8083 18.5855 18.8083 18.5855 18.8083 18.5855C18.8083 18.5855 18.8083 18.5855 18.8083 18.5855C18.8083 18.5855 18.8083 18.5855 18.8083 18.5855C18.8083 18.5855 18.8083 18.5855 18.8083 18.5855C18.8083 18.5855 18.8083 18.5855 18.8083 18.5855C18.8083 18.5855 18.8083 18.5855 18.8083 18.5855C18.8083 18.5855 18.8083 18.5855 18.8083 18.5855C18.8083 18.5855 18.8083 18.5855 18.8083 18.5855C18.8083 18.5855 18.8083 18.5855 18.8083 18.5855C18.8083 18.5855 18.8083 18.5855 18.8083 18.5855C18.8083 18.5855 18.8083 18.5855 18.8083 18.5855C18.8083 18.5855 18.8083 18.5855 18.8083 18.5855C18.8083 18.5855 18.8083 18.5855 18.8083 18.5855C18.8083 18.5855 18.8083 18.5855 18.8083 18.5855C18.8083 18.5855 18.8083 18.5855 18.8083 18.5855C18.8083 18.5855 18.8083 18.5855 18.8083 18.5855C18.8083 18.5855 18.8083 18.5855 18.8083 18.5855C18.8083 18.5855 18.8083 18.5855 18.8083 18.5854C18.8083 18.5854 18.8083 18.5854 18.8083 18.5854C18.8083 18.5854 18.8083 18.5854 18.8083 18.5854C18.8083 18.5854 18.8083 18.5854 18.8083 18.5854C18.8083 18.5854 18.8083 18.5854 18.8083 18.5854C18.8083 18.5854 18.8083 18.5854 18.8083 18.5854C18.8083 18.5854 18.8083 18.5854 18.8083 18.5854C18.8083 18.5854 18.8083 18.5854 18.8083 18.5854C18.8083 18.5854 18.8083 18.5854 18.8083 18.5854C18.8083 18.5854 18.8083 18.5854 18.8083 18.5854C18.8083 18.5854 18.8083 18.5854 18.8083 18.5854C18.8083 18.5854 18.8083 18.5854 18.8083 18.5854C18.8083 18.5854 18.8083 18.5854 18.8083 18.5854C18.8083 18.5854 18.8083 18.5854 18.8083 18.5854C18.8083 18.5854 18.8083 18.5854 18.8083 18.5854C18.8083 18.5854 18.8083 18.5854 18.8083 18.5854C18.8083 18.5854 18.8083 18.5854 18.8083 18.5854C18.8083 18.5854 18.8083 18.5854 18.8083 18.5854C18.8083 18.5854 18.8083 18.5854 18.8083 18.5854C18.8083 18.5854 18.8083 18.5854 18.8083 18.5854C18.8083 18.5854 18.8083 18.5854 18.8083 18.5854C18.8083 18.5854 18.8083 18.5854 18.8083 18.5854C18.8083 18.5854 18.8083 18.5854 18.8083 18.5854C18.8083 18.5854 18.8083 18.5854 18.8083 18.5854C18.8083 18.5854 18.8083 18.5854 18.8083 18.5854C18.8083 18.5854 18.8083 18.5853 18.8083 18.5853C18.8083 18.5853 18.8083 18.5853 18.8083 18.5853C18.8083 18.5853 18.8083 18.5853 18.8083 18.5853C18.8083 18.5853 18.8083 18.5853 18.8083 18.5853C18.8083 18.5853 18.8083 18.5853 18.8083 18.5853C18.8083 18.5853 18.8083 18.5853 18.8083 18.5853C18.8083 18.5853 18.8083 18.5853 18.8083 18.5853C18.8083 18.5853 18.8083 18.5853 18.8083 18.5853C18.8083 18.5853 18.8083 18.5853 18.8083 18.5853C18.8083 18.5853 18.8083 18.5853 18.8083 18.5853C18.8083 18.5853 18.8083 18.5853 18.8083 18.5853C18.8083 18.5853 18.8083 18.5853 18.8083 18.5853C18.8083 18.5853 18.8083 18.5853 18.8083 18.5853C18.8083 18.5853 18.8083 18.5853 18.8083 18.5853C18.8083 18.5853 18.8083 18.5853 18.8083 18.5853C18.8083 18.5853 18.8083 18.5853 18.8083 18.5853C18.8083 18.5853 18.8083 18.5853 18.8083 18.5853C18.8083 18.5853 18.8083 18.5853 18.8083 18.5853C18.8083 18.5853 18.8083 18.5853 18.8083 18.5853C18.8083 18.5853 18.8083 18.5853 18.8083 18.5853C18.8083 18.5853 18.8083 18.5853 18.8083 18.5853C18.8083 18.5853 18.8083 18.5853 18.8083 18.5853C18.8083 18.5853 18.8083 18.5853 18.8083 18.5853C18.8083 18.5853 18.8083 18.5853 18.8083 18.5853C18.8083 18.5853 18.8083 18.5853 18.8083 18.5852C18.8083 18.5852 18.8083 18.5852 18.8083 18.5852C18.8083 18.5852 18.8083 18.5852 18.8083 18.5852C18.8083 18.5852 18.8083 18.5852 18.8083 18.5852C18.8083 18.5852 18.8083 18.5852 18.8083 18.5852C18.8083 18.5852 18.8083 18.5852 18.8083 18.5852C18.8083 18.5852 18.8083 18.5852 18.8083 18.5852C18.8083 18.5852 18.8083 18.5852 18.8083 18.5852C18.8083 18.5852 18.8083 18.5852 18.8083 18.5852C18.8083 18.5852 18.8083 18.5852 18.8083 18.5852C18.8083 18.5852 18.8083 18.5852 18.8083 18.5852C18.8083 18.5852 18.8083 18.5852 18.8083 18.5852C18.8083 18.5852 18.8083 18.5852 18.8083 18.5852C18.8083 18.5852 18.8083 18.5852 18.8083 18.5852C18.8083 18.5852 18.8083 18.5852 18.8083 18.5852C18.8083 18.5852 18.8083 18.5852 18.8083 18.5852C18.8083 18.5852 18.8083 18.5852 18.8083 18.5852C18.8083 18.5852 18.8083 18.5852 18.8083 18.5852C18.8083 18.5852 18.8083 18.5852 18.8083 18.5852C18.8083 18.5852 18.8083 18.5852 18.8083 18.5852C18.8083 18.5852 18.8083 18.5852 18.8083 18.5852C18.8083 18.5852 18.8083 18.5852 18.8083 18.5852C18.8083 18.5852 18.8083 18.5852 18.8083 18.5852C18.8083 18.5852 18.8083 18.5852 18.8083 18.5852C18.8083 18.5852 18.8083 18.5852 18.8083 18.5852C18.8083 18.5852 18.8083 18.5851 18.8083 18.5851C18.8083 18.5851 18.8083 18.5851 18.8083 18.5851C18.8083 18.5851 18.8083 18.5851 18.8083 18.5851C18.8083 18.5851 18.8083 18.5851 18.8083 18.5851C18.8083 18.5851 18.8083 18.5851 18.8083 18.5851C18.8083 18.5851 18.8083 18.5851 18.8083 18.5851C18.8083 18.5851 18.8083 18.5851 18.8083 18.5851C18.8083 18.5851 18.8083 18.5851 18.8083 18.5851C18.8083 18.5851 18.8083 18.5851 18.8083 18.5851C18.8083 18.5851 18.8083 18.5851 18.8083 18.5851C18.8083 18.5851 18.8083 18.5851 18.8083 18.5851C18.8083 18.5851 18.8083 18.5851 18.8083 18.5851C18.8083 18.5851 18.8083 18.5851 18.8083 18.5851C18.8083 18.5851 18.8083 18.5851 18.8083 18.5851C18.8083 18.5851 18.8083 18.5851 18.8083 18.5851C18.8083 18.5851 18.8083 18.5851 18.8083 18.5851C18.8083 18.5851 18.8083 18.5851 18.8083 18.5851C18.8083 18.5851 18.8083 18.5851 18.8083 18.5851C18.8083 18.5851 18.8083 18.5851 18.8083 18.5851C18.8083 18.5851 18.8083 18.5851 18.8083 18.5851C18.8083 18.5851 18.8083 18.5851 18.8083 18.5851C18.8083 18.5851 18.8083 18.5851 18.8083 18.5851C18.8083 18.5851 18.8083 18.5851 18.8083 18.5851C18.8083 18.5851 18.8083 18.5851 18.8083 18.5851C18.8083 18.5851 18.8083 18.5851 18.8083 18.5851C18.8083 18.585 18.8083 18.585 18.8083 18.585C18.8083 18.585 18.8083 18.585 18.8083 18.585C18.8083 18.585 18.8083 18.585 18.8083 18.585C18.8083 18.585 18.8083 18.585 18.8083 18.585C18.8083 18.585 18.8083 18.585 18.8083 18.585C18.8083 18.585 18.8083 18.585 18.8083 18.585C18.8083 18.585 18.8083 18.585 18.8083 18.585C18.8083 18.585 18.8083 18.585 18.8083 18.585C18.8083 18.585 18.8083 18.585 18.8083 18.585C18.8083 18.585 18.8083 18.585 18.8083 18.585C18.8083 18.585 18.8083 18.585 18.8083 18.585C18.8083 18.585 18.8083 18.585 18.8083 18.585C18.8083 18.585 18.8083 18.585 18.8083 18.585C18.8083 18.585 18.8083 18.585 18.8083 18.585C18.8083 18.585 18.8083 18.585 18.8083 18.585C18.8083 18.585 18.8083 18.585 18.8083 18.585C18.8083 18.585 18.8083 18.585 18.8083 18.585C18.8083 18.585 18.8083 18.585 18.8083 18.585C18.8083 18.585 18.8083 18.585 18.8083 18.585C18.8083 18.585 18.8083 18.585 18.8083 18.585C18.8083 18.585 18.8083 18.585 18.8083 18.585C18.8083 18.585 18.8083 18.585 18.8083 18.585C18.8083 18.585 18.8083 18.585 18.8083 18.585C18.8083 18.585 18.8083 18.585 18.8083 18.585C18.8083 18.585 18.8083 18.585 18.8083 18.5849C18.8083 18.5849 18.8083 18.5849 18.8083 18.5849C18.8083 18.5849 18.8083 18.5849 18.8083 18.5849C18.8083 18.5849 18.8083 18.5849 18.8083 18.5849C18.8083 18.5849 18.8083 18.5849 18.8083 18.5849C18.8083 18.5849 18.8083 18.5849 18.8083 18.5849C18.8083 18.5849 18.8083 18.5849 18.8083 18.5849C18.8083 18.5849 18.8083 18.5849 18.8083 18.5849C18.8083 18.5849 18.8083 18.5849 18.8083 18.5849C18.8083 18.5849 18.8083 18.5849 18.8083 18.5849C18.8083 18.5849 18.8083 18.5849 18.8083 18.5849C18.8083 18.5849 18.8083 18.5849 18.8083 18.5849C18.8083 18.5849 18.8083 18.5849 18.8083 18.5849C18.8083 18.5849 18.8083 18.5849 18.8083 18.5849C18.8083 18.5849 18.8083 18.5849 18.8083 18.5849C18.8083 18.5849 18.8083 18.5849 18.8083 18.5849C18.8083 18.5849 18.8083 18.5849 18.8083 18.5849C18.8083 18.5849 18.8083 18.5849 18.8083 18.5849C18.8083 18.5849 18.8083 18.5849 18.8083 18.5849C18.8083 18.5849 18.8083 18.5849 18.8083 18.5849C18.8083 18.5849 18.8083 18.5849 18.8083 18.5849C18.8083 18.5849 18.8083 18.5849 18.8083 18.5849C18.8083 18.5849 18.8083 18.5849 18.8083 18.5849C18.8083 18.5849 18.8083 18.5849 18.8083 18.5849C18.8083 18.5849 18.8083 18.5849 18.8083 18.5849C18.8083 18.5848 18.8083 18.5848 18.8083 18.5848C18.8083 18.5848 18.8083 18.5848 18.8083 18.5848C18.8083 18.5848 18.8083 18.5848 18.8083 18.5848C18.8083 18.5848 18.8083 18.5848 18.8083 18.5848C18.8083 18.5848 18.8083 18.5848 18.8083 18.5848C18.8083 18.5848 18.8083 18.5848 18.8083 18.5848C18.8083 18.5848 18.8083 18.5848 18.8083 18.5848C18.8083 18.5848 18.8083 18.5848 18.8083 18.5848C18.8083 18.5848 18.8083 18.5848 18.8083 18.5848C18.8083 18.5848 18.8083 18.5848 18.8083 18.5848C18.8083 18.5848 18.8083 18.5848 18.8083 18.5848C18.8083 18.5848 18.8083 18.5848 18.8083 18.5848C18.8083 18.5848 18.8083 18.5848 18.8083 18.5848C18.8083 18.5848 18.8083 18.5848 18.8083 18.5848C18.8083 18.5848 18.8083 18.5848 18.8083 18.5848C18.8083 18.5848 18.8083 18.5848 18.8083 18.5848C18.8083 18.5848 18.8083 18.5848 18.8083 18.5848C18.8083 18.5848 18.8083 18.5848 18.8083 18.5848C18.8083 18.5848 18.8083 18.5848 18.8083 18.5848C18.8083 18.5848 18.8083 18.5848 18.8083 18.5848C18.8083 18.5848 18.8083 18.5848 18.8083 18.5848C18.8083 18.5848 18.8083 18.5848 18.8083 18.5848C18.8083 18.5848 18.8083 18.5848 18.8083 18.5848C18.8083 18.5848 18.8083 18.5848 18.8083 18.5848C18.8083 18.5848 18.8083 18.5848 18.8083 18.5847C18.8083 18.5847 18.8083 18.5847 18.8083 18.5847C18.8083 18.5847 18.8083 18.5847 18.8083 18.5847C18.8083 18.5847 18.8083 18.5847 18.8083 18.5847C18.8083 18.5847 18.8083 18.5847 18.8083 18.5847C18.8083 18.5847 18.8083 18.5847 18.8083 18.5847C18.8083 18.5847 18.8083 18.5847 18.8083 18.5847C18.8083 18.5847 18.8083 18.5847 18.8083 18.5847C18.8083 18.5847 18.8083 18.5847 18.8083 18.5847C18.8083 18.5847 18.8083 18.5847 18.8083 18.5847C18.8083 18.5847 18.8083 18.5847 18.8083 18.5847C18.8083 18.5847 18.8083 18.5847 18.8083 18.5847C18.8083 18.5847 18.8083 18.5847 18.8083 18.5847C18.8083 18.5847 18.8083 18.5847 18.8083 18.5847C18.8083 18.5847 18.8083 18.5847 18.8083 18.5847C18.8083 18.5847 18.8083 18.5847 18.8083 18.5847C18.8083 18.5847 18.8083 18.5847 18.8083 18.5847C18.8083 18.5847 18.8083 18.5847 18.8083 18.5847C18.8083 18.5847 18.8083 18.5847 18.8083 18.5847C18.8083 18.5847 18.8083 18.5847 18.8083 18.5847C18.8083 18.5847 18.8083 18.5847 18.8083 18.5847C18.8083 18.5847 18.8083 18.5847 18.8083 18.5847C18.8083 18.5847 18.8083 18.5847 18.8083 18.5847C18.8083 18.5847 18.8083 18.5847 18.8083 18.5847C18.8083 18.5847 18.8083 18.5847 18.8083 18.5847C18.8083 18.5847 18.8083 18.5846 18.8083 18.5846C18.8083 18.5846 18.8083 18.5846 18.8083 18.5846C18.8083 18.5846 18.8083 18.5846 18.8083 18.5846C18.8083 18.5846 18.8083 18.5846 18.8083 18.5846C18.8083 18.5846 18.8083 18.5846 18.8083 18.5846C18.8083 18.5846 18.8083 18.5846 18.8083 18.5846C18.8083 18.5846 18.8083 18.5846 18.8083 18.5846C18.8083 18.5846 18.8083 18.5846 18.8083 18.5846C18.8083 18.5846 18.8083 18.5846 18.8083 18.5846C18.8083 18.5846 18.8083 18.5846 18.8083 18.5846C18.8083 18.5846 18.8083 18.5846 18.8083 18.5846C18.8083 18.5846 18.8083 18.5846 18.8083 18.5846C18.8083 18.5846 18.8083 18.5846 18.8083 18.5846C18.8083 18.5846 18.8083 18.5846 18.8083 18.5846C18.8083 18.5846 18.8083 18.5846 18.8083 18.5846C18.8083 18.5846 18.8083 18.5846 18.8083 18.5846C18.8083 18.5846 18.8083 18.5846 18.8083 18.5846C18.8083 18.5846 18.8083 18.5846 18.8083 18.5846C18.8083 18.5846 18.8083 18.5846 18.8083 18.5846C18.8083 18.5846 18.8083 18.5846 18.8083 18.5846C18.8083 18.5846 18.8083 18.5846 18.8083 18.5846C18.8083 18.5846 18.8083 18.5846 18.8083 18.5846C18.8083 18.5846 18.8083 18.5846 18.8083 18.5846C18.8083 18.5846 18.8083 18.5846 18.8083 18.5846C18.8083 18.5846 18.8083 18.5846 18.8083 18.5846C18.8083 18.5845 18.8083 18.5845 18.8083 18.5845C18.8083 18.5845 18.8083 18.5845 18.8083 18.5845C18.8083 18.5845 18.8083 18.5845 18.8083 18.5845C18.8083 18.5845 18.8083 18.5845 18.8083 18.5845C18.8083 18.5845 18.8083 18.5845 18.8083 18.5845C18.8083 18.5845 18.8083 18.5845 18.8083 18.5845C18.8083 18.5845 18.8083 18.5845 18.8083 18.5845C18.8083 18.5845 18.8083 18.5845 18.8083 18.5845C18.8083 18.5845 18.8083 18.5845 18.8083 18.5845C18.8083 18.5845 18.8083 18.5845 18.8083 18.5845C18.8083 18.5845 18.8083 18.5845 18.8083 18.5845C18.8083 18.5845 18.8083 18.5845 18.8083 18.5845C18.8083 18.5845 18.8083 18.5845 18.8083 18.5845C18.8083 18.5845 18.8083 18.5845 18.8083 18.5845C18.8083 18.5845 18.8083 18.5845 18.8083 18.5845C18.8083 18.5845 18.8083 18.5845 18.8083 18.5845C18.8083 18.5845 18.8083 18.5845 18.8083 18.5845C18.8083 18.5845 18.8083 18.5845 18.8083 18.5845C18.8083 18.5845 18.8083 18.5845 18.8083 18.5845C18.8083 18.5845 18.8083 18.5845 18.8083 18.5845C18.8083 18.5845 18.8083 18.5845 18.8083 18.5845C18.8083 18.5845 18.8083 18.5845 18.8083 18.5845C18.8083 18.5845 18.8083 18.5845 18.8083 18.5845C18.8083 18.5845 18.8083 18.5845 18.8083 18.5845C18.8083 18.5845 18.8083 18.5844 18.8083 18.5844C18.8083 18.5844 18.8083 18.5844 18.8083 18.5844C18.8083 18.5844 18.8083 18.5844 18.8083 18.5844C18.8083 18.5844 18.8083 18.5844 18.8083 18.5844C18.8083 18.5844 18.8083 18.5844 18.8083 18.5844C18.8083 18.5844 18.8083 18.5844 18.8083 18.5844C18.8083 18.5844 18.8083 18.5844 18.8083 18.5844C18.8083 18.5844 18.8083 18.5844 18.8083 18.5844C18.8083 18.5844 18.8083 18.5844 18.8083 18.5844C18.8083 18.5844 18.8083 18.5844 18.8083 18.5844C18.8083 18.5844 18.8083 18.5844 18.8083 18.5844C18.8083 18.5844 18.8083 18.5844 18.8083 18.5844C18.8083 18.5844 18.8083 18.5844 18.8083 18.5844C18.8083 18.5844 18.8083 18.5844 18.8083 18.5844C18.8083 18.5844 18.8083 18.5844 18.8083 18.5844C18.8083 18.5844 18.8083 18.5844 18.8083 18.5844C18.8083 18.5844 18.8083 18.5844 18.8083 18.5844C18.8083 18.5844 18.8083 18.5844 18.8083 18.5844C18.8083 18.5844 18.8083 18.5844 18.8083 18.5844C18.8083 18.5844 18.8083 18.5844 18.8083 18.5844C18.8083 18.5844 18.8083 18.5844 18.8083 18.5844C18.8083 18.5844 18.8083 18.5844 18.8083 18.5844C18.8083 18.5844 18.8083 18.5844 18.8083 18.5844C18.8083 18.5844 18.8083 18.5844 18.8083 18.5844C18.8083 18.5844 18.8083 18.5844 18.8083 18.5844C18.8083 18.5843 18.8083 18.5843 18.8083 18.5843C18.8083 18.5843 18.8083 18.5843 18.8083 18.5843C18.8083 18.5843 18.8083 18.5843 18.8083 18.5843C18.8083 18.5843 18.8083 18.5843 18.8083 18.5843C18.8083 18.5843 18.8083 18.5843 18.8083 18.5843C18.8083 18.5843 18.8083 18.5843 18.8083 18.5843C18.8083 18.5843 18.8083 18.5843 18.8083 18.5843C18.8083 18.5843 18.8083 18.5843 18.8083 18.5843C18.8083 18.5843 18.8083 18.5843 18.8083 18.5843C18.8083 18.5843 18.8083 18.5843 18.8083 18.5843C18.8083 18.5843 18.8083 18.5843 18.8083 18.5843C18.8083 18.5843 18.8083 18.5843 18.8083 18.5843C18.8083 18.5843 18.8083 18.5843 18.8083 18.5843C18.8083 18.5843 18.8083 18.5843 18.8083 18.5843C18.8083 18.5843 18.8083 18.5843 18.8083 18.5843C18.8083 18.5843 18.8083 18.5843 18.8083 18.5843C18.8083 18.5843 18.8083 18.5843 18.8083 18.5843C18.8083 18.5843 18.8083 18.5843 18.8083 18.5843C18.8083 18.5843 18.8083 18.5843 18.8083 18.5843C18.8083 18.5843 18.8083 18.5843 18.8083 18.5843C18.8083 18.5843 18.8083 18.5843 18.8083 18.5843C18.8083 18.5843 18.8083 18.5843 18.8083 18.5843C18.8083 18.5843 18.8083 18.5843 18.8083 18.5843C18.8083 18.5843 18.8083 18.5843 18.8083 18.5843C18.8083 18.5843 18.8083 18.5843 18.8083 18.5842C18.8083 18.5842 18.8083 18.5842 18.8083 18.5842C18.8083 18.5842 18.8083 18.5842 18.8083 18.5842C18.8083 18.5842 18.8083 18.5842 18.8083 18.5842C18.8083 18.5842 18.8083 18.5842 18.8083 18.5842C18.8083 18.5842 18.8083 18.5842 18.8083 18.5842C18.8083 18.5842 18.8083 18.5842 18.8083 18.5842C18.8083 18.5842 18.8083 18.5842 18.8083 18.5842C18.8083 18.5842 18.8083 18.5842 18.8083 18.5842C18.8083 18.5842 18.8083 18.5842 18.8083 18.5842C18.8083 18.5842 18.8083 18.5842 18.8083 18.5842C18.8083 18.5842 18.8083 18.5842 18.8083 18.5842C18.8083 18.5842 18.8083 18.5842 18.8083 18.5842C18.8083 18.5842 18.8083 18.5842 18.8083 18.5842C18.8083 18.5842 18.8083 18.5842 18.8083 18.5842C18.8083 18.5842 18.8083 18.5842 18.8083 18.5842C18.8083 18.5842 18.8083 18.5842 18.8083 18.5842C18.8083 18.5842 18.8083 18.5842 18.8083 18.5842C18.8083 18.5842 18.8083 18.5842 18.8083 18.5842C18.8083 18.5842 18.8083 18.5842 18.8083 18.5842C18.8083 18.5842 18.8083 18.5842 18.8083 18.5842C18.8083 18.5842 18.8083 18.5842 18.8083 18.5842C18.8083 18.5842 18.8083 18.5842 18.8083 18.5842C18.8083 18.5842 18.8083 18.5842 18.8083 18.5842C18.8083 18.5842 18.8083 18.5842 18.8083 18.5842C18.8083 18.5842 18.8083 18.5841 18.8083 18.5841C18.8083 18.5841 18.8083 18.5841 18.8083 18.5841C18.8083 18.5841 18.8083 18.5841 18.8083 18.5841C18.8083 18.5841 18.8083 18.5841 18.8083 18.5841C18.8083 18.5841 18.8083 18.5841 18.8083 18.5841C18.8083 18.5841 18.8083 18.5841 18.8083 18.5841C18.8083 18.5841 18.8083 18.5841 18.8083 18.5841C18.8083 18.5841 18.8083 18.5841 18.8083 18.5841C18.8083 18.5841 18.8083 18.5841 18.8083 18.5841C18.8083 18.5841 18.8083 18.5841 18.8083 18.5841C18.8083 18.5841 18.8083 18.5841 18.8083 18.5841C18.8083 18.5841 18.8083 18.5841 18.8083 18.5841C18.8083 18.5841 18.8083 18.5841 18.8083 18.5841C18.8083 18.5841 18.8083 18.5841 18.8083 18.5841C18.8083 18.5841 18.8083 18.5841 18.8083 18.5841C18.8083 18.5841 18.8083 18.5841 18.8083 18.5841C18.8083 18.5841 18.8083 18.5841 18.8083 18.5841C18.8083 18.5841 18.8083 18.5841 18.8083 18.5841C18.8083 18.5841 18.8083 18.5841 18.8083 18.5841C18.8083 18.5841 18.8083 18.5841 18.8083 18.5841C18.8083 18.5841 18.8083 18.5841 18.8083 18.5841C18.8083 18.5841 18.8083 18.5841 18.8083 18.5841C18.8083 18.5841 18.8083 18.5841 18.8083 18.5841C18.8083 18.5841 18.8083 18.5841 18.8083 18.5841C18.8083 18.5841 18.8083 18.5841 18.8083 18.5841C18.8083 18.584 18.8083 18.584 18.8083 18.584C18.8083 18.584 18.8083 18.584 18.8083 18.584C18.8083 18.584 18.8083 18.584 18.8083 18.584C18.8083 18.584 18.8083 18.584 18.8083 18.584C18.8083 18.584 18.8083 18.584 18.8083 18.584C18.8083 18.584 18.8083 18.584 18.8083 18.584C18.8083 18.584 18.8083 18.584 18.8083 18.584C18.8083 18.584 18.8083 18.584 18.8083 18.584C18.8083 18.584 18.8083 18.584 18.8083 18.584C18.8083 18.584 18.8083 18.584 18.8083 18.584C18.8083 18.584 18.8083 18.584 18.8083 18.584C18.8083 18.584 18.8083 18.584 18.8083 18.584C18.8083 18.584 18.8083 18.584 18.8083 18.584C18.8083 18.584 18.8083 18.584 18.8083 18.584C18.8083 18.584 18.8083 18.584 18.8083 18.584C18.8083 18.584 18.8083 18.584 18.8083 18.584C18.8083 18.584 18.8083 18.584 18.8083 18.584C18.8083 18.584 18.8083 18.584 18.8083 18.584C18.8083 18.584 18.8083 18.584 18.8083 18.584C18.8083 18.584 18.8083 18.584 18.8083 18.584C18.8083 18.584 18.8083 18.584 18.8083 18.584C18.8083 18.584 18.8083 18.584 18.8083 18.584C18.8083 18.584 18.8083 18.584 18.8083 18.584C18.8083 18.584 18.8083 18.584 18.8083 18.584C18.8083 18.584 18.8083 18.5839 18.8083 18.5839C18.8083 18.5839 18.8083 18.5839 18.8083 18.5839C18.8083 18.5839 18.8083 18.5839 18.8083 18.5839C18.8083 18.5839 18.8083 18.5839 18.8083 18.5839C18.8083 18.5839 18.8083 18.5839 18.8083 18.5839C18.8083 18.5839 18.8083 18.5839 18.8083 18.5839C18.8083 18.5839 18.8083 18.5839 18.8083 18.5839C18.8083 18.5839 18.8083 18.5839 18.8083 18.5839C18.8083 18.5839 18.8083 18.5839 18.8083 18.5839C18.8083 18.5839 18.8083 18.5839 18.8083 18.5839C18.8083 18.5839 18.8083 18.5839 18.8083 18.5839C18.8083 18.5839 18.8083 18.5839 18.8083 18.5839C18.8083 18.5839 18.8083 18.5839 18.8083 18.5839C18.8083 18.5839 18.8083 18.5839 18.8083 18.5839C18.8083 18.5839 18.8083 18.5839 18.8083 18.5839C18.8083 18.5839 18.8083 18.5839 18.8083 18.5839C18.8083 18.5839 18.8083 18.5839 18.8083 18.5839C18.8083 18.5839 18.8083 18.5839 18.8083 18.5839C18.8083 18.5839 18.8083 18.5839 18.8083 18.5839C18.8083 18.5839 18.8083 18.5839 18.8083 18.5839C18.8083 18.5839 18.8083 18.5839 18.8083 18.5839C18.8083 18.5839 18.8083 18.5839 18.8083 18.5839C18.8083 18.5839 18.8083 18.5839 18.8083 18.5839C18.8083 18.5839 18.8083 18.5839 18.8083 18.5839H16.8083ZM12.4237 14.1992C14.8453 14.1992 16.8083 16.1623 16.8083 18.5839H18.8083C18.8083 15.0577 15.9498 12.1992 12.4237 12.1992V14.1992ZM8.03906 18.5839C8.03906 16.1623 10.0021 14.1992 12.4237 14.1992V12.1992C8.89756 12.1992 6.03906 15.0577 6.03906 18.5839H8.03906ZM8.03906 18.5856C8.03906 18.585 8.03906 18.5844 8.03906 18.5839H6.03906C6.03906 18.5847 6.03906 18.5855 6.03906 18.5863L8.03906 18.5856ZM7.03906 19.5859H17.8083V17.5859H7.03906V19.5859Z" fill="current" mask="url(#path-2-inside-1_2289_19528)"/>
<mask id="path-4-inside-2_2289_19528" fill="white">
<path fill-rule="evenodd" clip-rule="evenodd" d="M17.4901 7.88006C17.3564 7.12195 16.4522 6.79284 15.8625 7.28766L12.4019 10.1914L12.3877 10.2036L12.3734 10.1914L8.9129 7.28766C8.3232 6.79284 7.41898 7.12195 7.28531 7.88006L6.50087 12.3288C6.4669 12.5215 6.48916 12.7051 6.55312 12.8675C6.44418 12.8383 6.32704 12.8272 6.2044 12.8379L1.70418 13.2316C0.937312 13.2987 0.530647 14.1708 0.972187 14.8014L3.50753 18.4223H6.32617C6.32808 15.0306 9.07819 12.2816 12.4703 12.2816C15.8625 12.2816 18.6126 15.0306 18.6145 18.4223H21.5328L23.852 15.11C24.2936 14.4794 23.8869 13.6073 23.12 13.5402L18.6198 13.1465C18.1907 13.109 17.8288 13.3393 17.6504 13.6717C17.5834 13.6105 17.5153 13.5505 17.4462 13.4917C17.9682 13.4085 18.3769 12.9096 18.2745 12.3288L17.4901 7.88006ZM7.22293 13.4687C7.25037 13.5378 7.27025 13.6103 7.2817 13.6847C7.34868 13.6233 7.41676 13.563 7.4859 13.5039C7.39555 13.5041 7.30727 13.4919 7.22293 13.4687Z"/>
</mask>
<path fill-rule="evenodd" clip-rule="evenodd" d="M17.4901 7.88006C17.3564 7.12195 16.4522 6.79284 15.8625 7.28766L12.4019 10.1914L12.3877 10.2036L12.3734 10.1914L8.9129 7.28766C8.3232 6.79284 7.41898 7.12195 7.28531 7.88006L6.50087 12.3288C6.4669 12.5215 6.48916 12.7051 6.55312 12.8675C6.44418 12.8383 6.32704 12.8272 6.2044 12.8379L1.70418 13.2316C0.937312 13.2987 0.530647 14.1708 0.972187 14.8014L3.50753 18.4223H6.32617C6.32808 15.0306 9.07819 12.2816 12.4703 12.2816C15.8625 12.2816 18.6126 15.0306 18.6145 18.4223H21.5328L23.852 15.11C24.2936 14.4794 23.8869 13.6073 23.12 13.5402L18.6198 13.1465C18.1907 13.109 17.8288 13.3393 17.6504 13.6717C17.5834 13.6105 17.5153 13.5505 17.4462 13.4917C17.9682 13.4085 18.3769 12.9096 18.2745 12.3288L17.4901 7.88006ZM7.22293 13.4687C7.25037 13.5378 7.27025 13.6103 7.2817 13.6847C7.34868 13.6233 7.41676 13.563 7.4859 13.5039C7.39555 13.5041 7.30727 13.4919 7.22293 13.4687Z" fill="current"/>
<path d="M15.8625 7.28766L16.5053 8.0537V8.0537L15.8625 7.28766ZM17.4901 7.88006L18.4749 7.70641V7.70641L17.4901 7.88006ZM12.4019 10.1914L11.7591 9.42532L11.7524 9.43105L12.4019 10.1914ZM12.3877 10.2036L11.7381 10.9638L12.3876 11.5188L13.0372 10.9639L12.3877 10.2036ZM12.3734 10.1914L13.0231 9.4311L13.0162 9.42535L12.3734 10.1914ZM8.9129 7.28766L8.27012 8.0537L8.9129 7.28766ZM7.28531 7.88006L6.3005 7.70641L6.3005 7.70641L7.28531 7.88006ZM6.50087 12.3288L5.51606 12.1552V12.1552L6.50087 12.3288ZM6.55312 12.8675L6.29461 13.8335L8.21013 14.3461L7.48357 12.5011L6.55312 12.8675ZM6.2044 12.8379L6.11725 11.8417H6.11724L6.2044 12.8379ZM1.70418 13.2316L1.79134 14.2278H1.79134L1.70418 13.2316ZM0.972187 14.8014L0.153035 15.375H0.153035L0.972187 14.8014ZM3.50753 18.4223L2.68838 18.9958L2.98697 19.4223H3.50753V18.4223ZM6.32617 18.4223V19.4223H7.3256L7.32617 18.4228L6.32617 18.4223ZM18.6145 18.4223L17.6145 18.4228L17.6151 19.4223H18.6145V18.4223ZM21.5328 18.4223V19.4223H22.0533L22.3519 18.9958L21.5328 18.4223ZM23.852 15.11L23.0329 14.5364L23.0329 14.5364L23.852 15.11ZM23.12 13.5402L23.0329 14.5364L23.12 13.5402ZM18.6198 13.1465L18.707 12.1503L18.6198 13.1465ZM17.6504 13.6717L16.9761 14.4101L17.9241 15.2758L18.5314 14.1447L17.6504 13.6717ZM17.4462 13.4917L17.2888 12.5042L15.1435 12.8461L16.7983 14.2535L17.4462 13.4917ZM18.2745 12.3288L19.2593 12.1552V12.1552L18.2745 12.3288ZM7.2817 13.6847L6.29331 13.8367L6.57791 15.6879L7.95785 14.4215L7.2817 13.6847ZM7.22293 13.4687L7.48845 12.5046L5.55307 11.9715L6.29343 13.8375L7.22293 13.4687ZM7.4859 13.5039L8.13561 14.264L10.2048 12.4955L7.48282 12.5039L7.4859 13.5039ZM16.5053 8.0537V8.0537L18.4749 7.70641C18.2075 6.1902 16.3991 5.53198 15.2197 6.52161L16.5053 8.0537ZM13.0447 10.9574L16.5053 8.0537L15.2197 6.52161L11.7592 9.42535L13.0447 10.9574ZM13.0372 10.9639L13.0515 10.9517L11.7524 9.43105L11.7382 9.44322L13.0372 10.9639ZM11.7238 10.9517L11.7381 10.9638L13.0373 9.44331L13.0231 9.43113L11.7238 10.9517ZM8.27012 8.0537L11.7307 10.9574L13.0162 9.42535L9.55569 6.52161L8.27012 8.0537ZM8.27012 8.0537L8.27012 8.0537L9.55569 6.52161C8.37629 5.53198 6.56785 6.1902 6.3005 7.70641L8.27012 8.0537ZM7.48568 12.5025L8.27012 8.0537L6.3005 7.70641L5.51606 12.1552L7.48568 12.5025ZM7.48357 12.5011C7.48427 12.5029 7.4848 12.505 7.48499 12.5069C7.48521 12.509 7.48472 12.5079 7.48568 12.5025L5.51606 12.1552C5.44948 12.5328 5.49241 12.9031 5.62267 13.2339L7.48357 12.5011ZM6.29155 13.8341C6.29345 13.834 6.29478 13.8339 6.29559 13.8339C6.2964 13.8339 6.2968 13.834 6.29684 13.834C6.29688 13.834 6.29666 13.8339 6.29623 13.8339C6.29581 13.8338 6.29525 13.8337 6.29461 13.8335L6.81163 11.9015C6.59019 11.8422 6.35607 11.8208 6.11725 11.8417L6.29155 13.8341ZM1.79134 14.2278L6.29156 13.8341L6.11724 11.8417L1.61703 12.2354L1.79134 14.2278ZM1.79134 14.2278L1.79134 14.2278L1.61703 12.2354C0.0832832 12.3696 -0.730043 14.1138 0.153035 15.375L1.79134 14.2278ZM4.32668 17.8487L1.79134 14.2278L0.153035 15.375L2.68838 18.9958L4.32668 17.8487ZM6.32617 17.4223H3.50753V19.4223H6.32617V17.4223ZM12.4703 11.2816C8.52609 11.2816 5.32839 14.478 5.32617 18.4217L7.32617 18.4228C7.32777 15.5832 9.63028 13.2816 12.4703 13.2816V11.2816ZM19.6145 18.4217C19.6123 14.478 16.4146 11.2816 12.4703 11.2816V13.2816C15.3104 13.2816 17.6129 15.5832 17.6145 18.4228L19.6145 18.4217ZM21.5328 17.4223H18.6145V19.4223H21.5328V17.4223ZM23.0329 14.5364L20.7136 17.8487L22.3519 18.9958L24.6712 15.6836L23.0329 14.5364ZM23.0329 14.5364H23.0329L24.6712 15.6836C25.5543 14.4224 24.7409 12.6782 23.2072 12.544L23.0329 14.5364ZM18.5326 14.1427L23.0329 14.5364L23.2072 12.544L18.707 12.1503L18.5326 14.1427ZM18.5314 14.1447C18.5323 14.1431 18.5335 14.1415 18.5345 14.1404C18.5356 14.1393 18.5358 14.1394 18.5346 14.1401C18.5332 14.1409 18.5311 14.1418 18.5287 14.1423C18.5277 14.1425 18.5272 14.1426 18.5275 14.1425C18.5278 14.1425 18.5294 14.1424 18.5326 14.1427L18.707 12.1503C17.847 12.0751 17.121 12.5436 16.7693 13.1986L18.5314 14.1447ZM16.7983 14.2535C16.8585 14.3046 16.9178 14.3569 16.9761 14.4101L18.3247 12.9332C18.249 12.8641 18.1721 12.7963 18.094 12.7299L16.7983 14.2535ZM17.2897 12.5025C17.2905 12.5068 17.2903 12.5083 17.2903 12.5077C17.2903 12.5071 17.2905 12.5057 17.2909 12.5039C17.2918 12.5002 17.293 12.4989 17.2924 12.4997C17.2914 12.501 17.2896 12.5028 17.2874 12.5041C17.2855 12.5053 17.2858 12.5046 17.2888 12.5042L17.6036 14.4792C18.6379 14.3144 19.4655 13.3248 19.2593 12.1552L17.2897 12.5025ZM16.5053 8.0537L17.2897 12.5025L19.2593 12.1552L18.4749 7.70641L16.5053 8.0537ZM8.27009 13.5328C8.24702 13.3827 8.20708 13.2376 8.15244 13.0999L6.29343 13.8375L6.29331 13.8367L8.27009 13.5328ZM6.83618 12.7437C6.75809 12.8104 6.6812 12.8785 6.60556 12.948L7.95785 14.4215C8.01616 14.368 8.07543 14.3155 8.13561 14.264L6.83618 12.7437ZM6.95742 14.4328C7.12733 14.4796 7.30591 14.5044 7.48897 14.5039L7.48282 12.5039C7.48518 12.5039 7.48722 12.5042 7.48845 12.5046L6.95742 14.4328Z" fill="current" mask="url(#path-4-inside-2_2289_19528)"/>
<path d="M11.9238 6.85938C11.9238 7.13552 12.1477 7.35938 12.4238 7.35938C12.7 7.35937 12.9238 7.13552 12.9238 6.85937L11.9238 6.85938ZM12.7774 0.351953C12.5821 0.15669 12.2655 0.15669 12.0703 0.351953L8.88829 3.53393C8.69303 3.7292 8.69303 4.04578 8.88829 4.24104C9.08356 4.4363 9.40014 4.4363 9.5954 4.24104L12.4238 1.41261L15.2523 4.24104C15.4475 4.4363 15.7641 4.4363 15.9594 4.24104C16.1546 4.04578 16.1546 3.72919 15.9594 3.53393L12.7774 0.351953ZM12.9238 6.85937L12.9238 0.705506L11.9238 0.705506L11.9238 6.85938L12.9238 6.85937Z" fill="current"/>
</svg>
